<svg id="app-store-badge" xmlns="http://www.w3.org/2000/svg" width="255.232" height="79.76" viewBox="0 0 255.232 79.76">
  <path id="Path_222" data-name="Path 222" d="M291.456,98.76H52.176A8,8,0,0,1,44.2,90.784V26.976A8,8,0,0,1,52.176,19h239.28a8,8,0,0,1,7.976,7.976V90.784A8,8,0,0,1,291.456,98.76Z" transform="translate(-44.2 -19)" fill="#0b0b20"/>
  <path id="Path_223" data-name="Path 223" d="M87.855,45.978c0-6.181,5.184-9.172,5.384-9.372a12.424,12.424,0,0,0-8.973-4.985c-3.789-.4-7.577,2.193-9.372,2.193-1.994,0-4.985-2.193-8.175-2.193A11.846,11.846,0,0,0,56.55,37.8c-4.387,7.577-1.2,18.744,2.991,24.925,2.193,2.991,4.586,6.381,7.777,6.181s4.387-1.994,8.175-1.994,4.786,1.994,8.175,1.994,5.583-2.991,7.577-5.982a22.856,22.856,0,0,0,3.39-6.979C94.435,55.748,87.855,53.355,87.855,45.978Z" transform="translate(-34.017 -6.496)" fill="#fff"/>
  <path id="Path_224" data-name="Path 224" d="M71.713,33.576A12.366,12.366,0,0,0,74.3,25.6a10.679,10.679,0,0,0-7.178,3.789,10.083,10.083,0,0,0-2.592,7.577C67.127,37.165,69.918,35.57,71.713,33.576Z" transform="translate(-24.056 -12.44)" fill="#fff"/>
  <path id="Path_225" data-name="Path 225" d="M104.735,62.923h-4.387l-2.393-7.577H89.581l-2.193,7.577H83.2L91.575,37.2h5.184ZM97.158,52.155l-2.193-6.78c-.2-.6-.6-2.393-1.4-4.786h0c-.2,1-.6,2.792-1.2,4.786l-2.193,6.78Z" transform="translate(-5.434 -0.909)" fill="#fff"/>
  <path id="Path_226" data-name="Path 226" d="M113.646,50.072a10.618,10.618,0,0,1-2.592,7.577,7.67,7.67,0,0,1-5.783,2.393c-2.393,0-4.187-.8-5.184-2.592h0V67.22H95.9V47.28c0-1.994,0-3.988-.2-6.181h3.589l.2,2.991h0a6.87,6.87,0,0,1,6.181-3.39,6.431,6.431,0,0,1,5.384,2.592C112.848,44.887,113.646,47.081,113.646,50.072Zm-4.187,0a7.164,7.164,0,0,0-1.2-4.387,4.026,4.026,0,0,0-3.589-1.795,4.764,4.764,0,0,0-2.792,1,4.433,4.433,0,0,0-1.6,2.592,3.509,3.509,0,0,0-.2,1.2v3.19a5.031,5.031,0,0,0,1.2,3.39,3.967,3.967,0,0,0,3.19,1.4,4.026,4.026,0,0,0,3.589-1.795A7.2,7.2,0,0,0,109.459,50.072Z" transform="translate(6.991 2.57)" fill="#fff"/>
  <path id="Path_227" data-name="Path 227" d="M124.346,50.072a10.618,10.618,0,0,1-2.592,7.577,7.67,7.67,0,0,1-5.783,2.393c-2.393,0-4.187-.8-5.184-2.592h0V67.22H106.6V47.28c0-1.994,0-3.988-.2-6.181h3.589l.2,2.991h0a6.87,6.87,0,0,1,6.181-3.39,6.431,6.431,0,0,1,5.384,2.592C123.548,44.887,124.346,47.081,124.346,50.072Zm-4.187,0a7.164,7.164,0,0,0-1.2-4.387,4.026,4.026,0,0,0-3.589-1.795,4.764,4.764,0,0,0-2.792,1,4.433,4.433,0,0,0-1.6,2.592,3.508,3.508,0,0,0-.2,1.2v3.19a5.031,5.031,0,0,0,1.2,3.39,3.967,3.967,0,0,0,3.19,1.4,4.026,4.026,0,0,0,3.589-1.795A7.2,7.2,0,0,0,120.159,50.072Z" transform="translate(17.627 2.57)" fill="#fff"/>
  <path id="Path_228" data-name="Path 228" d="M135.253,55.844a7.363,7.363,0,0,1-2.193,5.384c-1.6,1.6-3.988,2.193-6.979,2.193a12.328,12.328,0,0,1-6.58-1.6l1-3.39a12.181,12.181,0,0,0,5.982,1.6,5.921,5.921,0,0,0,3.589-1,3.62,3.62,0,0,0,1.2-2.792,3.791,3.791,0,0,0-1-2.592,9.992,9.992,0,0,0-3.589-1.994c-4.586-1.6-6.78-4.187-6.78-7.378a6.431,6.431,0,0,1,2.393-5.184c1.6-1.4,3.589-1.994,6.381-1.994a12.433,12.433,0,0,1,5.783,1.2l-1,3.39a9.713,9.713,0,0,0-4.985-1.2,5.7,5.7,0,0,0-3.39,1,3.3,3.3,0,0,0-1,2.393,3.51,3.51,0,0,0,1.2,2.592,15.472,15.472,0,0,0,3.789,1.994,13.452,13.452,0,0,1,4.985,3.19A8.025,8.025,0,0,1,135.253,55.844Z" transform="translate(30.648 -1.009)" fill="#fff"/>
  <path id="Path_229" data-name="Path 229" d="M139.866,46.277H135.28V55.25c0,2.193.8,3.39,2.393,3.39a4.426,4.426,0,0,0,1.795-.2l.2,3.19a7.306,7.306,0,0,1-3.19.4,4.69,4.69,0,0,1-3.789-1.4c-1-1-1.4-2.592-1.4-4.985V46.277H128.5v-3.19h2.792V39.7l3.988-1.2v4.586h4.586Z" transform="translate(39.594 0.383)" fill="#fff"/>
  <path id="Path_230" data-name="Path 230" d="M153.545,50.171a10.228,10.228,0,0,1-2.393,6.979,9.165,9.165,0,0,1-6.78,2.792,8.42,8.42,0,0,1-6.58-2.792,9.712,9.712,0,0,1-2.393-6.78,9.476,9.476,0,0,1,2.592-6.979,8.854,8.854,0,0,1,6.78-2.792,8.42,8.42,0,0,1,6.58,2.792A10.629,10.629,0,0,1,153.545,50.171Zm-4.387.2a7.583,7.583,0,0,0-1.2-4.387,4.369,4.369,0,0,0-7.577,0,8.039,8.039,0,0,0-1.2,4.387,7.583,7.583,0,0,0,1.2,4.387,4.275,4.275,0,0,0,3.789,2.193,4.516,4.516,0,0,0,3.789-2.193A8.039,8.039,0,0,0,149.159,50.371Z" transform="translate(46.453 2.47)" fill="#fff"/>
  <path id="Path_231" data-name="Path 231" d="M156.269,44.687c-.4,0-.8-.2-1.4-.2a4.259,4.259,0,0,0-3.39,1.6,6.886,6.886,0,0,0-1,3.589v9.771H146.3V46.681a52.29,52.29,0,0,0-.2-5.783h3.589l.2,3.589h.2a7.888,7.888,0,0,1,1.994-2.991,5.934,5.934,0,0,1,2.991-1h1v4.187Z" transform="translate(57.088 2.371)" fill="#fff"/>
  <path id="Path_232" data-name="Path 232" d="M168.65,49.374a4.426,4.426,0,0,1-.2,1.795H156.088a5.15,5.15,0,0,0,1.795,4.187,6.422,6.422,0,0,0,3.988,1.4,13.093,13.093,0,0,0,4.985-.8l.6,2.792a14.864,14.864,0,0,1-6.181,1.2,8.724,8.724,0,0,1-6.78-2.592,9.381,9.381,0,0,1-2.393-6.78,11.216,11.216,0,0,1,2.193-6.979,7.966,7.966,0,0,1,6.58-2.991,6.636,6.636,0,0,1,5.982,2.991A8.371,8.371,0,0,1,168.65,49.374Zm-3.789-1a5.851,5.851,0,0,0-.8-3.19,3.593,3.593,0,0,0-3.19-1.795,3.875,3.875,0,0,0-3.19,1.6,7.614,7.614,0,0,0-1.2,3.19h8.375Z" transform="translate(63.052 2.47)" fill="#fff"/>
  <path id="Path_233" data-name="Path 233" d="M94.769,32.282a6.486,6.486,0,0,1-1.994,5.184,8.252,8.252,0,0,1-5.384,1.6,13.2,13.2,0,0,1-2.991-.2V26.5a19.387,19.387,0,0,1,3.589-.2,7.431,7.431,0,0,1,4.985,1.4A6.458,6.458,0,0,1,94.769,32.282Zm-2.193,0a4.69,4.69,0,0,0-1.2-3.39,4.69,4.69,0,0,0-3.39-1.2,3.887,3.887,0,0,0-1.6.2v9.372h1.4a4.875,4.875,0,0,0,3.589-1.2A5.4,5.4,0,0,0,92.575,32.282Z" transform="translate(-4.241 -11.744)" fill="#fff"/>
  <path id="Path_234" data-name="Path 234" d="M99.673,32.686a4.69,4.69,0,0,1-1.2,3.39,4.108,4.108,0,0,1-3.39,1.4,3.718,3.718,0,0,1-3.19-1.4,4.69,4.69,0,0,1-1.2-3.39,4.69,4.69,0,0,1,1.2-3.39,4.108,4.108,0,0,1,3.39-1.4,3.718,3.718,0,0,1,3.19,1.4A4.69,4.69,0,0,1,99.673,32.686Zm-1.994,0a4.02,4.02,0,0,0-.6-2.193,1.744,1.744,0,0,0-1.795-1,2.094,2.094,0,0,0-1.795,1,4.32,4.32,0,0,0,0,4.387,1.744,1.744,0,0,0,1.795,1,1.916,1.916,0,0,0,1.795-1.2A2.977,2.977,0,0,0,97.679,32.686Z" transform="translate(2.021 -10.153)" fill="#fff"/>
  <path id="Path_235" data-name="Path 235" d="M109.56,28l-2.792,9.172h-1.795l-1.2-3.988a16.613,16.613,0,0,1-.8-2.991h0a16.61,16.61,0,0,1-.8,2.991l-1.2,3.988H99.191L96.2,28h1.994l1,4.387.6,2.991h0c.2-.8.4-1.795.8-2.991l1.2-4.387h1.6l1.2,4.187a16.613,16.613,0,0,1,.8,2.991h0l.6-2.991,1.2-4.187Z" transform="translate(7.488 -10.054)" fill="#fff"/>
  <path id="Path_236" data-name="Path 236" d="M111.977,37.371h-1.994V32.187q0-2.393-1.795-2.393a1.81,1.81,0,0,0-1.4.6,2.264,2.264,0,0,0-.6,1.6v5.384H104.2V28.2h1.795v1.4h0a5.287,5.287,0,0,1,1-1.2,3.216,3.216,0,0,1,1.795-.6,3,3,0,0,1,2.193.8c.8.6,1,1.6,1,2.991Z" transform="translate(15.44 -10.253)" fill="#fff"/>
  <path id="Path_237" data-name="Path 237" d="M111.894,39.26H109.9V25.9h1.994Z" transform="translate(21.106 -12.141)" fill="#fff"/>
  <path id="Path_238" data-name="Path 238" d="M121.373,32.686a4.69,4.69,0,0,1-1.2,3.39,4.108,4.108,0,0,1-3.39,1.4,3.718,3.718,0,0,1-3.19-1.4,4.69,4.69,0,0,1-1.2-3.39,4.69,4.69,0,0,1,1.2-3.39,4.811,4.811,0,0,1,3.39-1.4,3.718,3.718,0,0,1,3.19,1.4A4.69,4.69,0,0,1,121.373,32.686Zm-1.994,0a4.02,4.02,0,0,0-.6-2.193,1.744,1.744,0,0,0-1.795-1,2.094,2.094,0,0,0-1.795,1,4.32,4.32,0,0,0,0,4.387,1.744,1.744,0,0,0,1.795,1,1.916,1.916,0,0,0,1.795-1.2A2.977,2.977,0,0,0,119.379,32.686Z" transform="translate(23.591 -10.153)" fill="#fff"/>
  <path id="Path_239" data-name="Path 239" d="M125.478,37.272h-1.795l-.2-1h0a3.215,3.215,0,0,1-2.592,1.2,2.312,2.312,0,0,1-1.994-.8,3.583,3.583,0,0,1-.8-1.795,2.705,2.705,0,0,1,1.4-2.592,7.452,7.452,0,0,1,3.988-.8v-.2a1.586,1.586,0,0,0-1.795-1.795,4.737,4.737,0,0,0-2.393.6l-.4-1.4a5.059,5.059,0,0,1,3.19-.8c2.393,0,3.589,1.2,3.589,3.789v3.39A9.784,9.784,0,0,0,125.478,37.272Zm-1.994-3.19v-1.4c-2.193,0-3.39.6-3.39,1.795a1.363,1.363,0,0,0,1.4,1.4,2.834,2.834,0,0,0,1.2-.4,1.991,1.991,0,0,0,.8-1Z" transform="translate(29.256 -10.153)" fill="#fff"/>
  <path id="Path_240" data-name="Path 240" d="M131.874,39.16H130.08v-1.4h0a2.943,2.943,0,0,1-2.991,1.6,3.62,3.62,0,0,1-2.792-1.2,4.608,4.608,0,0,1-1-3.39,5.567,5.567,0,0,1,1.2-3.589,3.937,3.937,0,0,1,2.792-1.2,2.962,2.962,0,0,1,2.592,1.2h0V26h1.994V39.16Zm-1.994-3.789V33.178a4.171,4.171,0,0,0-.8-1.2,1.682,1.682,0,0,0-1.4-.4,2.094,2.094,0,0,0-1.795,1,4.252,4.252,0,0,0-.6,2.393,3.582,3.582,0,0,0,.6,2.193,2.094,2.094,0,0,0,1.795,1,1.814,1.814,0,0,0,1.6-.8A4.458,4.458,0,0,0,129.88,35.372Z" transform="translate(34.425 -12.042)" fill="#fff"/>
  <path id="Path_241" data-name="Path 241" d="M140.773,32.686a4.69,4.69,0,0,1-1.2,3.39,4.108,4.108,0,0,1-3.39,1.4,3.718,3.718,0,0,1-3.19-1.4,4.69,4.69,0,0,1-1.2-3.39A4.69,4.69,0,0,1,133,29.3a4.108,4.108,0,0,1,3.39-1.4,3.719,3.719,0,0,1,3.19,1.4A4.69,4.69,0,0,1,140.773,32.686Zm-2.193,0a4.02,4.02,0,0,0-.6-2.193,1.744,1.744,0,0,0-1.795-1,2.094,2.094,0,0,0-1.795,1,4.32,4.32,0,0,0,0,4.387,1.744,1.744,0,0,0,1.795,1,1.916,1.916,0,0,0,1.795-1.2A2.977,2.977,0,0,0,138.58,32.686Z" transform="translate(42.874 -10.153)" fill="#fff"/>
  <path id="Path_242" data-name="Path 242" d="M145.677,37.371h-1.994V32.187q0-2.393-1.795-2.393a1.81,1.81,0,0,0-1.4.6,2.264,2.264,0,0,0-.6,1.6v5.384H137.9V28.2h1.795v1.4h0a5.287,5.287,0,0,1,1-1.2,3.216,3.216,0,0,1,1.795-.6,3,3,0,0,1,2.193.8c.8.6,1,1.6,1,2.991Z" transform="translate(48.938 -10.253)" fill="#fff"/>
  <path id="Path_243" data-name="Path 243" d="M151.284,30.689H149.09v4.387c0,1.2.4,1.6,1.2,1.6h1v1.6a3.887,3.887,0,0,1-1.6.2,1.944,1.944,0,0,1-1.795-.8,3.833,3.833,0,0,1-.6-2.393V30.689h-1.4v-1.6h1.4V27.5l1.994-.6v2.193h2.193v1.6Z" transform="translate(56.89 -11.147)" fill="#fff"/>
  <path id="Path_244" data-name="Path 244" d="M157.877,39.26h-1.994V34.075q0-2.393-1.795-2.393a1.919,1.919,0,0,0-1.994,1.4V39.26H150.1V25.9h1.994v5.583h0a3.182,3.182,0,0,1,2.792-1.6,2.312,2.312,0,0,1,1.994.8,4.487,4.487,0,0,1,1,2.991Z" transform="translate(61.064 -12.141)" fill="#fff"/>
  <path id="Path_245" data-name="Path 245" d="M163.476,32.187v1h-5.982a2.658,2.658,0,0,0,.8,1.994,3.369,3.369,0,0,0,1.994.6,7.437,7.437,0,0,0,2.393-.4l.4,1.4a6.659,6.659,0,0,1-2.991.6,4.69,4.69,0,0,1-3.39-1.2,4.69,4.69,0,0,1-1.2-3.39,4.69,4.69,0,0,1,1.2-3.39,3.718,3.718,0,0,1,3.19-1.4,3.148,3.148,0,0,1,2.991,1.4A5.281,5.281,0,0,1,163.476,32.187Zm-1.795-.6a3.757,3.757,0,0,0-.4-1.6,1.618,1.618,0,0,0-1.6-.8,1.814,1.814,0,0,0-1.6.8,2.264,2.264,0,0,0-.6,1.6Z" transform="translate(66.432 -10.054)" fill="#fff"/>
</svg>
