<svg xmlns="http://www.w3.org/2000/svg" xmlns:xlink="http://www.w3.org/1999/xlink" width="533.303" height="602.457" viewBox="0 0 533.303 602.457">
  <defs>
    <linearGradient id="linear-gradient" x1="0.5" y1="1" x2="0.5" gradientUnits="objectBoundingBox">
      <stop offset="0" stop-color="gray" stop-opacity="0.251"/>
      <stop offset="0.54" stop-color="gray" stop-opacity="0.122"/>
      <stop offset="1" stop-color="gray" stop-opacity="0.102"/>
    </linearGradient>
    <linearGradient id="linear-gradient-2" x1="0.5" y1="1" x2="0.5" y2="0" xlink:href="#linear-gradient"/>
    <linearGradient id="linear-gradient-3" x1="-0.001" y1="0.5" x2="1" y2="0.5" xlink:href="#linear-gradient"/>
    <clipPath id="clip-path">
      <rect width="77.654" height="7.632" fill="none"/>
    </clipPath>
  </defs>
  <g id="undraw_post_online_dkuk" transform="translate(-0.093 -0.05)">
    <g id="Group_24" data-name="Group 24" transform="translate(377.797 313.043)" opacity="0.2">
      <path id="Path_278" data-name="Path 278" d="M760.045,762.185a18.248,18.248,0,0,1-1.655,2.549q-8.244-5.8-16.77-11.381l.369-.729a16.1,16.1,0,0,1,5.7-6.212c3.137-1.93,6.675-2.353,9.585-.784s4.534,4.706,4.706,8.369A16.16,16.16,0,0,1,760.045,762.185Z" transform="translate(-741.62 -525.322)" fill="#6763ff"/>
      <ellipse id="Ellipse_1" data-name="Ellipse 1" cx="13.374" cy="10.213" rx="13.374" ry="10.213" transform="translate(1.766 224.758) rotate(-62.09)" fill="#6763ff"/>
      <ellipse id="Ellipse_2" data-name="Ellipse 2" cx="13.374" cy="10.213" rx="13.374" ry="10.213" transform="translate(9.418 210.315) rotate(-62.09)" fill="#6763ff"/>
      <ellipse id="Ellipse_3" data-name="Ellipse 3" cx="13.374" cy="10.213" rx="13.374" ry="10.213" transform="translate(17.07 195.872) rotate(-62.09)" fill="#6763ff"/>
      <ellipse id="Ellipse_4" data-name="Ellipse 4" cx="13.374" cy="10.213" rx="13.374" ry="10.213" transform="translate(24.714 181.437) rotate(-62.09)" fill="#6763ff"/>
      <path id="Path_279" data-name="Path 279" d="M800.484,522.659a48.408,48.408,0,0,1-.784-6.73l25.822,8.691-25.751-13.4a48.985,48.985,0,0,1,17.319-34.694l24.951,36.082-19.374-40.129a48.922,48.922,0,1,1,45.777,86.2,48.957,48.957,0,0,1,.784,10.5l-39.219-.314,38.655,6.369A48.922,48.922,0,0,1,840.2,612.1a48.922,48.922,0,1,1-67.967-36,48.938,48.938,0,0,1,28.316-53.456Z" transform="translate(-741.945 -465.029)" fill="#6763ff"/>
      <path id="Path_280" data-name="Path 280" d="M863.524,619.992a48.743,48.743,0,0,1-23.406,21.83,48.922,48.922,0,1,1-67.967-36C770.252,595.4,866.1,615.137,863.524,619.992Z" transform="translate(-741.928 -494.74)" fill="#6763ff" opacity="0.1"/>
    </g>
    <g id="Group_25" data-name="Group 25" transform="translate(0.093 1.008)" opacity="0.2">
      <path id="Path_281" data-name="Path 281" d="M476.734,679.38a33.941,33.941,0,0,0,1.875,5.53q18.127-6.942,36.67-13.335c-.11-.5-.22-1.02-.345-1.569a31.006,31.006,0,0,0-7.711-14.292c-4.934-5.083-11.334-7.562-17.492-6.055s-10.691,6.644-12.738,13.405A31.022,31.022,0,0,0,476.734,679.38Z" transform="translate(-306.595 -192.708)" fill="#6763ff"/>
      <ellipse id="Ellipse_5" data-name="Ellipse 5" cx="19.665" cy="25.736" rx="19.665" ry="25.736" transform="translate(156.6 431.061) rotate(-13.72)" fill="#6763ff"/>
      <ellipse id="Ellipse_6" data-name="Ellipse 6" cx="19.665" cy="25.736" rx="19.665" ry="25.736" transform="translate(149.131 400.499) rotate(-13.72)" fill="#6763ff"/>
      <ellipse id="Ellipse_7" data-name="Ellipse 7" cx="19.665" cy="25.736" rx="19.665" ry="25.736" transform="translate(141.672 369.937) rotate(-13.72)" fill="#6763ff"/>
      <ellipse id="Ellipse_8" data-name="Ellipse 8" cx="19.665" cy="25.736" rx="19.665" ry="25.736" transform="translate(134.213 339.383) rotate(-13.72)" fill="#6763ff"/>
      <path id="Path_282" data-name="Path 282" d="M439.943,200.394a93.076,93.076,0,0,0,4.557-12.205L392.3,192.2,446.7,179.325a94.377,94.377,0,0,0-15.947-72.948l-63.629,55.582L422.239,96.2A94.181,94.181,0,1,0,296.1,235.472a93.606,93.606,0,0,0-6.361,19.233l73.411,17.947-75.144-6.369a94.236,94.236,0,0,0,35.721,82.361,94.181,94.181,0,1,0,143.833-35.1,94.189,94.189,0,0,0-27.618-113.148Z" transform="translate(-260.093 -67.221)" fill="#6763ff"/>
      <path id="Path_283" data-name="Path 283" d="M298.653,358.721a93.742,93.742,0,0,0,33.384,51.77,94.181,94.181,0,1,0,143.833-35.1C484.333,356.847,296.143,348.454,298.653,358.721Z" transform="translate(-268.402 -129.116)" fill="#6763ff" opacity="0.1"/>
    </g>
    <path id="Path_284" data-name="Path 284" d="M738.807,197.981h-1.749v-94.33c0-20.8-17.123-37.651-38.247-37.651H484.571c-21.124,0-38.247,16.864-38.247,37.651v39.1h-.51a2.236,2.236,0,0,0-2.251,2.212V163.79A2.235,2.235,0,0,0,445.815,166h.549v19.225h-.69a2.228,2.228,0,0,0-2.243,2.212v36a2.235,2.235,0,0,0,2.243,2.22h.69v14.119h-.6a2.228,2.228,0,0,0-2.251,2.212v36.349a2.228,2.228,0,0,0,2.251,2.212h.6V610.287c0,20.8,17.123,37.651,38.247,37.651H698.8c21.124,0,38.247-16.864,38.247-37.651V268.529h1.757a2.235,2.235,0,0,0,2.251-2.212V200.193a2.236,2.236,0,0,0-2.251-2.212Z" transform="translate(-299.53 -65.95)" fill="url(#linear-gradient)"/>
    <g id="Group_26" data-name="Group 26" transform="translate(148.136 3.972)" opacity="0.9">
      <rect id="Rectangle_325" data-name="Rectangle 325" width="8.448" height="69.669" rx="2.29" transform="translate(281.085 130.373)" fill="#e5e7eb"/>
      <rect id="Rectangle_326" data-name="Rectangle 326" width="4.746" height="22.936" rx="2.29" transform="translate(0.173 75.795)" fill="#e5e7eb"/>
      <rect id="Rectangle_327" data-name="Rectangle 327" width="5.35" height="39.918" rx="2.29" transform="translate(0 117.784)" fill="#e5e7eb"/>
      <rect id="Rectangle_328" data-name="Rectangle 328" width="5.091" height="40.263" rx="2.29" transform="translate(0.086 171.671)" fill="#e5e7eb"/>
      <rect id="Rectangle_329" data-name="Rectangle 329" width="282.788" height="574.729" rx="38.99" transform="translate(2.855)" fill="#fff"/>
      <rect id="Rectangle_330" data-name="Rectangle 330" width="39.494" height="8.016" rx="3.87" transform="translate(116.976 17.162)" fill="#e5e7eb"/>
      <circle id="Ellipse_9" data-name="Ellipse 9" cx="4.549" cy="4.549" r="4.549" transform="translate(162.431 16.621)" fill="#e5e7eb"/>
    </g>
    <path id="Path_285" data-name="Path 285" d="M700.142,90.09H667.77v3.922a18.5,18.5,0,0,1-18.5,18.488H546.064a18.5,18.5,0,0,1-18.5-18.488V90.09H497.2a22.457,22.457,0,0,0-22.457,22.457V612.422A22.457,22.457,0,0,0,497.2,634.879H700.142A22.457,22.457,0,0,0,722.6,612.422V112.547A22.457,22.457,0,0,0,700.142,90.09Z" transform="translate(-306.28 -71.144)" fill="#ececf3"/>
    <ellipse id="Ellipse_10" data-name="Ellipse 10" cx="44.859" cy="7.585" rx="44.859" ry="7.585" transform="translate(23.607 583.501)" fill="#6c63ff"/>
    <path id="Path_286" data-name="Path 286" d="M359.5,797.989c1.922-1.788,3.726-3.922,4.275-6.456s-.533-5.64-2.989-6.573c-2.745-1.051-5.679.847-7.9,2.769s-4.777,4.118-7.687,3.71a11.688,11.688,0,0,0,3.616-10.981,4.526,4.526,0,0,0-1-2.22c-1.522-1.631-4.283-.933-6.11.353-5.8,4.079-7.42,11.962-7.452,19.061-.588-2.565-.094-5.232-.11-7.844s-.729-5.538-2.941-6.95a8.933,8.933,0,0,0-4.5-1.051c-2.6-.094-5.491.165-7.287,2.071-2.22,2.353-1.639,6.346.282,8.958s4.855,4.244,7.554,6.048a16.726,16.726,0,0,1,5.389,5.146,4.632,4.632,0,0,1,.4.918h16.339A45.815,45.815,0,0,0,359.5,797.989Z" transform="translate(-272.481 -219.312)" fill="#6763ff"/>
    <g id="Group_27" data-name="Group 27" transform="translate(460.754 530.442)" opacity="0.4">
      <ellipse id="Ellipse_11" data-name="Ellipse 11" cx="25.602" cy="4.33" rx="25.602" ry="4.33" transform="translate(0 14.585)" fill="#6763ff"/>
      <path id="Path_287" data-name="Path 287" d="M887,754.018a7.483,7.483,0,0,0,2.447-3.679,3.286,3.286,0,0,0-1.71-3.757c-1.569-.6-3.24.486-4.51,1.569s-2.722,2.353-4.385,2.118a6.66,6.66,0,0,0,2.063-6.275,2.556,2.556,0,0,0-.573-1.263c-.871-.934-2.447-.533-3.483.2-3.31,2.353-4.236,6.832-4.259,10.879a20.83,20.83,0,0,1-.055-4.479,4.642,4.642,0,0,0-1.686-3.969,5.114,5.114,0,0,0-2.565-.6c-1.49-.055-3.138.094-4.165,1.177-1.263,1.357-.933,3.624.165,5.114A16,16,0,0,0,868.6,754.5a9.639,9.639,0,0,1,3.075,2.934,2.659,2.659,0,0,1,.227.525h9.334A25.88,25.88,0,0,0,887,754.017Z" transform="translate(-850.813 -742.185)" fill="#6763ff"/>
    </g>
    <g id="Group_28" data-name="Group 28" transform="translate(68.623 481.784)" opacity="0.4">
      <ellipse id="Ellipse_12" data-name="Ellipse 12" cx="25.602" cy="4.33" rx="25.602" ry="4.33" transform="translate(0 14.587)" fill="#6763ff"/>
      <path id="Path_288" data-name="Path 288" d="M387.087,691.987a7.4,7.4,0,0,0,2.439-3.687,3.271,3.271,0,0,0-1.71-3.749c-1.569-.6-3.24.486-4.5,1.569s-2.73,2.353-4.385,2.118a6.7,6.7,0,0,0,2.063-6.275,2.651,2.651,0,0,0-.573-1.271c-.871-.926-2.447-.526-3.491.2-3.31,2.353-4.236,6.824-4.251,10.872a20.327,20.327,0,0,1-.063-4.479c-.008-1.5-.416-3.138-1.679-3.922a5.067,5.067,0,0,0-2.573-.6c-1.483-.055-3.138.094-4.157,1.184-1.263,1.357-.933,3.624.165,5.114a16.238,16.238,0,0,0,4.306,3.451,9.484,9.484,0,0,1,3.075,2.934,3.22,3.22,0,0,1,.235.526h9.326a26.109,26.109,0,0,0,5.773-3.985Z" transform="translate(-350.896 -680.153)" fill="#6763ff"/>
    </g>
    <rect id="Rectangle_331" data-name="Rectangle 331" width="40.074" height="40.074" transform="translate(187.473 60.448)" fill="#d6d8e0"/>
    <rect id="Rectangle_332" data-name="Rectangle 332" width="83.961" height="7.632" transform="translate(257.119 63.311)" fill="#d6d8e0"/>
    <rect id="Rectangle_333" data-name="Rectangle 333" width="138.342" height="7.632" transform="translate(257.119 76.669)" fill="#d6d8e0"/>
    <rect id="Rectangle_334" data-name="Rectangle 334" width="138.342" height="7.632" transform="translate(257.119 90.027)" fill="#d6d8e0"/>
    <rect id="Rectangle_335" data-name="Rectangle 335" width="40.074" height="40.074" transform="translate(187.779 133.914)" fill="#d6d8e0"/>
    <rect id="Rectangle_336" data-name="Rectangle 336" width="83.961" height="7.632" transform="translate(257.425 136.777)" fill="#d6d8e0"/>
    <rect id="Rectangle_337" data-name="Rectangle 337" width="138.342" height="7.632" transform="translate(257.425 150.135)" fill="#d6d8e0"/>
    <rect id="Rectangle_338" data-name="Rectangle 338" width="138.342" height="7.632" transform="translate(257.425 163.485)" fill="#d6d8e0"/>
    <rect id="Rectangle_339" data-name="Rectangle 339" width="40.074" height="40.074" transform="translate(188.085 207.379)" fill="#d6d8e0"/>
    <rect id="Rectangle_340" data-name="Rectangle 340" width="83.961" height="7.632" transform="translate(257.739 210.235)" fill="#d6d8e0"/>
    <rect id="Rectangle_341" data-name="Rectangle 341" width="138.342" height="7.632" transform="translate(257.739 223.593)" fill="#d6d8e0"/>
    <rect id="Rectangle_342" data-name="Rectangle 342" width="138.342" height="7.632" transform="translate(257.739 236.951)" fill="#d6d8e0"/>
    <rect id="Rectangle_343" data-name="Rectangle 343" width="40.074" height="40.074" transform="translate(188.391 280.837)" fill="#d6d8e0"/>
    <rect id="Rectangle_344" data-name="Rectangle 344" width="83.961" height="7.632" transform="translate(258.044 283.7)" fill="#d6d8e0"/>
    <rect id="Rectangle_345" data-name="Rectangle 345" width="138.342" height="7.632" transform="translate(258.044 297.059)" fill="#d6d8e0"/>
    <rect id="Rectangle_346" data-name="Rectangle 346" width="138.342" height="7.632" transform="translate(258.044 310.417)" fill="#d6d8e0"/>
    <rect id="Rectangle_347" data-name="Rectangle 347" width="40.074" height="40.074" transform="translate(188.705 354.303)" fill="#d6d8e0"/>
    <rect id="Rectangle_348" data-name="Rectangle 348" width="83.961" height="7.632" transform="translate(258.35 357.166)" fill="#d6d8e0"/>
    <rect id="Rectangle_349" data-name="Rectangle 349" width="138.342" height="7.632" transform="translate(258.35 370.524)" fill="#d6d8e0"/>
    <rect id="Rectangle_350" data-name="Rectangle 350" width="138.342" height="7.632" transform="translate(258.35 383.882)" fill="#d6d8e0"/>
    <rect id="Rectangle_351" data-name="Rectangle 351" width="40.074" height="40.074" transform="translate(189.01 427.769)" fill="#d6d8e0"/>
    <rect id="Rectangle_352" data-name="Rectangle 352" width="83.961" height="7.632" transform="translate(258.656 430.632)" fill="#d6d8e0"/>
    <rect id="Rectangle_353" data-name="Rectangle 353" width="138.342" height="7.632" transform="translate(258.656 443.99)" fill="#d6d8e0"/>
    <rect id="Rectangle_354" data-name="Rectangle 354" width="138.342" height="7.632" transform="translate(258.656 457.348)" fill="#d6d8e0"/>
    <rect id="Rectangle_355" data-name="Rectangle 355" width="40.074" height="40.074" transform="translate(189.316 501.235)" fill="#d6d8e0"/>
    <rect id="Rectangle_356" data-name="Rectangle 356" width="83.961" height="7.632" transform="translate(258.962 504.098)" fill="#d6d8e0"/>
    <rect id="Rectangle_357" data-name="Rectangle 357" width="138.342" height="7.632" transform="translate(258.962 517.456)" fill="#d6d8e0"/>
    <rect id="Rectangle_358" data-name="Rectangle 358" width="138.342" height="7.632" transform="translate(258.962 530.814)" fill="#d6d8e0"/>
    <rect id="Rectangle_359" data-name="Rectangle 359" width="341.562" height="84.91" transform="translate(121.608 181.283)" fill="url(#linear-gradient-2)"/>
    <rect id="Rectangle_360" data-name="Rectangle 360" width="338.699" height="81.098" transform="translate(123.514 183.197)" fill="#fff"/>
    <rect id="Rectangle_361" data-name="Rectangle 361" width="40.074" height="40.074" rx="20.037" transform="translate(189.05 203.622)" fill="#6c63ff"/>
    <g id="Group_29" data-name="Group 29" transform="translate(258.523 206.571)" opacity="0.5">
      <rect id="Rectangle_362" data-name="Rectangle 362" width="83.961" height="7.632" fill="#6763ff"/>
    </g>
    <path id="Path_289" data-name="Path 289" d="M537.166,390.057a6.978,6.978,0,0,0-8.244-1.255c-1.992,1.2-3.09,3.436-4.094,5.546-1.467,3.138-3.616,6.071-4.275,9.46-1.812,9.342-9.248,16.6-12.229,25.626-1.067,3.224-1.569,6.683-3.255,9.624a30.631,30.631,0,0,1-2.667,3.671,103.383,103.383,0,0,0-10.2,15.554c-1.694.329-3.2,1.765-4.644,2.887a16.025,16.025,0,0,1-6.275,2.973,5.921,5.921,0,0,0-2.573.941c-1.082.9-1.232,2.526-2.11,3.616a5.631,5.631,0,0,1-2.353,1.569c0-.275-.039-.549-.047-.831-.039-1.451-.063-2.91-.063-4.369a16.425,16.425,0,0,0-.047-21.32,32.159,32.159,0,0,1,.9-6.738,2.993,2.993,0,0,0-.635-3.09c-.431-.337-.988-.463-1.451-.784a6.322,6.322,0,0,1-1.569-1.992,8.471,8.471,0,0,0-10.652-2.722c-2.832,1.49-4.549,4.471-7.06,6.495-1.286,1.035-2.769,1.812-4.055,2.855a16.841,16.841,0,0,0-5.248,8.534,48.884,48.884,0,0,0-1.428,10.072,9.092,9.092,0,0,0,.118,3.059,8.078,8.078,0,0,0,1.153,2.353,26.371,26.371,0,0,0,9.75,9.3,3.816,3.816,0,0,1,0,.6,4.339,4.339,0,0,1-.173.933l-.455-.125c-1.679-.377-3.491-.329-5-1.169-2.573-1.443-3.349-4.965-5.812-6.581a4.449,4.449,0,0,0-.659-.353,44.019,44.019,0,0,0-2.526-13.076c-.722-2.008-1.608-4.055-1.5-6.2a15.236,15.236,0,0,1,1.89-5.608,142.562,142.562,0,0,0,7.06-19.319q1.953-6.173,3.922-12.354a19.476,19.476,0,0,0,3.444-3.279,17.484,17.484,0,0,0,3.992-8.573,12.142,12.142,0,0,0-2.2-9.068,5.24,5.24,0,0,0-3.687-2.259,4.793,4.793,0,0,0-3.443,1.569,15.311,15.311,0,0,0-2.949,5.067c-1.286,3.036-2.588,6.189-2.463,9.483.1,2.73,1.122,5.781-.471,8-5.216,7.271-9.154,15.633-13.288,23.587a42.2,42.2,0,0,0-2.683,5.914,32.948,32.948,0,0,0-1.4,10.2,136.738,136.738,0,0,0,1.726,19.327,24.836,24.836,0,0,0,2.283,8.471,35.528,35.528,0,0,0-1.4,9.538,5.436,5.436,0,0,0,.345,2.188,9.037,9.037,0,0,0,1.733,2.181,9.765,9.765,0,0,1,2.353,7.719,21.892,21.892,0,0,0,.7,7.734c1.569,6.966,3.138,13.923,4.393,20.943a13.4,13.4,0,0,1,.3,3.985c-.243,1.9-1.294,3.7-1.067,5.608a21.228,21.228,0,0,1,.5,2.683,6.628,6.628,0,0,1-.471,2.008c-1.788,5.2-6.6,17.123-6.542,22.63l1.255-.3c-1.263,7.146-4.22,13.978-5.773,21.1a70.6,70.6,0,0,0-1.459,15.782,58.539,58.539,0,0,1-.126,7.138c-.243,2.11-.784,4.173-1.082,6.275a56.846,56.846,0,0,0-.377,8.495,86.743,86.743,0,0,0,.784,13.335c1.2,7.53-.9,15.013-1.475,22.614a135.919,135.919,0,0,1-1.8,15.86c-.431,2.212-.973,4.408-1.271,6.644-.879,6.636.4,13.476-.98,20.025-.651,3.067-1.812,6.51-.1,9.13.541.824,1.318,1.467,1.906,2.259a2.871,2.871,0,0,1,.549,2.769c-.337.722-1.122,1.192-1.318,1.961-.314,1.208.949,2.2,2.079,2.714l.322.125a2.91,2.91,0,0,0,.612,2.353,4.988,4.988,0,0,0,2.408,1.255l14.809,4.487c3.3,1,6.895,1.992,10.2,1.177a2.564,2.564,0,0,0,.588,1.271,4.989,4.989,0,0,0,2.408,1.255l14.7,4.455c3.781,1.145,7.93,2.275,11.562.722a6.566,6.566,0,0,0,2.651-2,7,7,0,0,0,.941-5.859,4.777,4.777,0,0,0-1.428-2.62,6.275,6.275,0,0,0-3.42-1.122,6.91,6.91,0,0,1-3-.784,2.158,2.158,0,0,1-.682-.714q1.271-1.255,2.463-2.6c-.643-.22-.871-1.145-.933-1.82-.933-9.993,2.832-19.759,4.259-29.689a63.535,63.535,0,0,0,.377-15.044c-.173-1.89-.431-3.773-.51-5.671-.369-9.883,4.353-19.39,4.189-29.281-.078-4.628,2.353-9.193,3.538-13.672a49.493,49.493,0,0,0,1.09-12.236l.188-32.364c0-4.377,0-8.856-1.4-12.989a16.472,16.472,0,0,1-.565-7.107c3.993-1.765,7.773-4.377,12.04-3.922,1.137-3.02-.212-13.084-1.279-16.135a69.388,69.388,0,0,1-2.353-37.368c.965-4.463-.361-9.209.714-13.656a8.259,8.259,0,0,1,1.169-2.934,3.138,3.138,0,0,1,2.69-1.42c0-2.722-.055-5.491-.235-8.252a19.61,19.61,0,0,0,4.369-5.028c2.353-3.922,3.695-8.338,5.318-12.605,2.879-7.53,6.809-14.6,10.111-21.963s3.624-15.421,6.275-23.045a17.319,17.319,0,0,1,8.432-9.711c1.569-.784,3.24-1.349,4.377-2.636a7.058,7.058,0,0,0,1.522-3.742,9.891,9.891,0,0,0-2.526-8.346ZM445.393,714.111c.322-.353.635-.706.933-1.09-.988-.157-2.2-.879-2.22-1.883a10.408,10.408,0,0,1,.643-2.941,11.766,11.766,0,0,0,.22-5.224c-.22-1.216-.628-2.353-.879-3.593a33.55,33.55,0,0,1-.471-4.063,67.214,67.214,0,0,0-2.855-14.4c-1.42-4.542.526-9.138,1.028-13.868.243-2.243.133-4.557.918-6.667.463-1.255,1.224-2.353,1.686-3.624,1.075-2.91.439-6.15-.22-9.185,4.644-8.416,6.181-18.457,7.93-27.932q1.475-7.977,2.949-15.947c.431-2.353.91-4.832,2.353-6.73a82.689,82.689,0,0,1,1.788,21.445,31.839,31.839,0,0,0,.078,6.275c.361,2.283,1.31,4.44,1.859,6.683,1.224,4.95.51,10.15.784,15.241.1,2.055.369,4.11.455,6.165.384,9.091-2.659,17.931-5.663,26.52-1.843,5.263-2.251,11.248-3.138,16.762-.831,5.279-1.655,10.566-2.079,15.892-.125,1.624-.227,3.294-.424,4.942a12.91,12.91,0,0,0-1.53-.243,6.91,6.91,0,0,1-3-.784,3.491,3.491,0,0,1-1.153-1.749Z" transform="translate(-293.845 -134.657)" fill="url(#linear-gradient-3)"/>
    <path id="Path_290" data-name="Path 290" d="M486.417,817.253a6.361,6.361,0,0,1,3.42,1.114,4.762,4.762,0,0,1,1.428,2.6,6.934,6.934,0,0,1-.941,5.828,6.51,6.51,0,0,1-2.651,1.977c-3.632,1.569-7.781.431-11.562-.706L461.3,823.606a4.974,4.974,0,0,1-2.408-1.247,3.263,3.263,0,0,1-.063-3.8,7.428,7.428,0,0,1,3.137-2.5c4.612-2.243,9.8-2.761,14.9-2.855,1.883-.039,3.734-.447,5.012,1,.675.784.557,1.616,1.569,2.283a6.793,6.793,0,0,0,2.965.769Z" transform="translate(-302.725 -227.037)" fill="#3f3d56"/>
    <path id="Path_291" data-name="Path 291" d="M450.747,806.865a6.275,6.275,0,0,1,3.42,1.106,4.839,4.839,0,0,1,1.428,2.6,6.926,6.926,0,0,1-.941,5.828A6.527,6.527,0,0,1,452,818.388c-3.632,1.569-7.781.424-11.562-.714l-14.809-4.463a4.91,4.91,0,0,1-2.408-1.247,3.263,3.263,0,0,1-.063-3.8,7.381,7.381,0,0,1,3.138-2.5c4.612-2.243,9.8-2.761,14.864-2.855,1.875,0,3.734-.447,5.012,1,.675.784.557,1.624,1.569,2.282a6.909,6.909,0,0,0,3,.777Z" transform="translate(-295.034 -224.799)" fill="#3f3d56"/>
    <path id="Path_292" data-name="Path 292" d="M462.4,602.342a182.377,182.377,0,0,0-26.261-.737,5.154,5.154,0,0,0-1.7.267c-1.93.784-2.228,3.31-2.416,5.381-.737,8.369-4.432,16.174-6.275,24.387a69.627,69.627,0,0,0-1.459,15.688,57.648,57.648,0,0,1-.126,7.06c-.243,2.1-.784,4.149-1.082,6.275a56.123,56.123,0,0,0-.376,8.44,85.616,85.616,0,0,0,.784,13.233c1.2,7.483-.9,14.9-1.475,22.465a134.381,134.381,0,0,1-1.8,15.758c-.431,2.2-.973,4.377-1.271,6.6-.879,6.6.4,13.4-.98,19.9-.651,3.043-1.812,6.463-.1,9.068.541.824,1.318,1.459,1.906,2.243a2.847,2.847,0,0,1,.549,2.753c-.337.714-1.122,1.184-1.318,1.945-.314,1.2.949,2.188,2.079,2.7a21.671,21.671,0,0,0,25.226-6.236c-.988-.157-2.2-.871-2.22-1.867a10.3,10.3,0,0,1,.643-2.926,11.61,11.61,0,0,0,.22-5.193c-.22-1.2-.627-2.353-.878-3.569a33.048,33.048,0,0,1-.471-4.032,66.375,66.375,0,0,0-2.855-14.307c-1.42-4.51.526-9.075,1.027-13.782.243-2.22.133-4.526.918-6.62.463-1.247,1.224-2.353,1.686-3.6,1.075-2.894.439-6.1-.22-9.122,4.644-8.369,6.181-18.339,7.93-27.752l2.949-15.845c.431-2.353.91-4.793,2.353-6.683a81.648,81.648,0,0,1,1.788,21.312,31.375,31.375,0,0,0,.078,6.189c.361,2.267,1.31,4.408,1.859,6.644,1.224,4.91.51,10.079.784,15.139.1,2.039.369,4.079.455,6.126.384,9.028-2.659,17.813-5.663,26.34-1.843,5.232-2.251,11.178-3.138,16.653-.831,5.248-1.655,10.5-2.079,15.79-.384,4.863-.549,10.126-3.577,13.946,2.761,1.8,5.624,3.624,8.856,4.244a16.425,16.425,0,0,0,10.927-2.11,34.517,34.517,0,0,0,8.628-7.342c-.643-.22-.871-1.145-.933-1.812-.933-9.922,2.832-19.61,4.259-29.493A62.752,62.752,0,0,0,480,720.9c-.173-1.875-.431-3.742-.51-5.624-.369-9.821,4.353-19.272,4.189-29.093-.078-4.6,2.353-9.138,3.538-13.586,1.035-3.922,1.067-8.071,1.09-12.15l.188-32.16c0-4.353,0-8.8-1.4-12.911-1.726-4.934.243-10.613.541-15.829a65.276,65.276,0,0,1-25.242,2.792Z" transform="translate(-293.823 -180.99)" fill="#3f3d56"/>
    <path id="Path_293" data-name="Path 293" d="M510.4,465.15a102.547,102.547,0,0,1,12.009-18.966,30.928,30.928,0,0,0,2.667-3.64c1.686-2.918,2.188-6.361,3.255-9.562,2.981-8.973,10.417-16.182,12.229-25.461.659-3.365,2.808-6.275,4.275-9.413,1-2.1,2.1-4.314,4.094-5.491a6.978,6.978,0,0,1,8.244,1.255,9.774,9.774,0,0,1,2.518,8.275,6.91,6.91,0,0,1-1.522,3.718c-1.137,1.279-2.839,1.859-4.377,2.628a17.178,17.178,0,0,0-8.432,9.64c-2.62,7.577-2.949,15.594-6.275,22.9s-7.232,14.323-10.111,21.8c-1.624,4.243-2.934,8.628-5.318,12.55s-6.134,7.208-10.636,7.8a26.717,26.717,0,0,0-1.318-8.346C510.756,471.715,508.976,468.037,510.4,465.15Z" transform="translate(-313.855 -136.191)" fill="#a0616a"/>
    <path id="Path_294" data-name="Path 294" d="M444.141,470.1a43.494,43.494,0,0,0-2.541-16.3c-.722-2-1.608-4.032-1.5-6.157a15.049,15.049,0,0,1,1.89-5.569,141.043,141.043,0,0,0,7.06-19.2l3.922-12.268a19.611,19.611,0,0,0,3.444-3.255,17.366,17.366,0,0,0,3.992-8.518,12.017,12.017,0,0,0-2.2-9.013,5.208,5.208,0,0,0-3.687-2.235,4.746,4.746,0,0,0-3.443,1.569,15.169,15.169,0,0,0-2.949,5.036c-1.286,3.012-2.588,6.15-2.463,9.413.1,2.714,1.122,5.742-.471,7.946-5.216,7.224-9.154,15.531-13.288,23.43a41.73,41.73,0,0,0-2.683,5.875,32.566,32.566,0,0,0-1.4,10.15,134.982,134.982,0,0,0,1.726,19.2c.549,3.985,1.286,8.33,4.306,10.981C437,477.188,440.149,473.251,444.141,470.1Z" transform="translate(-296.162 -135.287)" fill="#a0616a"/>
    <circle id="Ellipse_13" data-name="Ellipse 13" cx="16.276" cy="16.276" r="16.276" transform="translate(151.666 305.326)" fill="#a0616a"/>
    <path id="Path_295" data-name="Path 295" d="M461.958,494.915c-.392,2.949-1.969,5.577-3.506,8.118-.933,1.569-2.11,3.24-3.922,3.412a78.441,78.441,0,0,0,14.778,5.946,16.8,16.8,0,0,0,5.4.871,13.2,13.2,0,0,0,4.495-1.153,22.316,22.316,0,0,0,12.66-14.9,29.376,29.376,0,0,1-6.04-.463,4.457,4.457,0,0,1-2.965-1.451,4.777,4.777,0,0,1-.612-2.628q-.118-4.071,0-8.142a32.16,32.16,0,0,0-11.829,1.451c-1.569.51-3.138,1.13-4.746,1.53-.988.243-3.71,0-4.44.573C460.131,488.946,462.248,492.915,461.958,494.915Z" transform="translate(-301.923 -156.174)" fill="#a0616a"/>
    <path id="Path_296" data-name="Path 296" d="M464.092,503.994a10.236,10.236,0,0,0-7.781-9.083c-1.679-.369-3.491-.329-5-1.161-2.573-1.435-3.349-4.934-5.812-6.542s-5.977-.714-8.126,1.326-3.24,4.926-4.118,7.75a39.02,39.02,0,0,0-2.11,11.884,5.4,5.4,0,0,0,.345,2.181,9.152,9.152,0,0,0,1.734,2.173,9.632,9.632,0,0,1,2.353,7.656,21.679,21.679,0,0,0,.7,7.695c1.569,6.911,3.138,13.829,4.393,20.8a13.242,13.242,0,0,1,.3,3.922c-.243,1.883-1.294,3.679-1.067,5.561a21.09,21.09,0,0,1,.5,2.675,6.488,6.488,0,0,1-.471,1.985c-1.788,5.177-6.6,17.021-6.542,22.488,8.354-2.141,20.669-2.62,29.289-2.651a61.551,61.551,0,0,1,7.114.314c5.671.6,11.476,2.259,16.974.729,5.1-1.42,9.624-5.491,14.9-4.973,1.137-3-.212-13.005-1.279-16.033a68.508,68.508,0,0,1-2.353-37.125c.965-4.44-.361-9.146.714-13.562a8.126,8.126,0,0,1,1.169-2.918,3.138,3.138,0,0,1,2.69-1.412,99.923,99.923,0,0,0-1.961-21.124c-.526-2.471-1.616-5.389-4.1-5.812-2.243-.377-4.134,1.514-5.93,2.91a16.2,16.2,0,0,1-6.275,2.949,5.906,5.906,0,0,0-2.573.933c-1.082.894-1.231,2.51-2.11,3.6-1.569,1.953-5.075,1.781-6.189,4.032a14.119,14.119,0,0,0-.6,2.063,7.546,7.546,0,0,1-2.581,3.334A14.559,14.559,0,0,1,464.092,503.994Z" transform="translate(-296.88 -155.362)" fill="#6763ff"/>
    <path id="Path_297" data-name="Path 297" d="M482.091,451.295a2.976,2.976,0,0,0-.635-3.075c-.431-.337-.988-.463-1.451-.784a6.275,6.275,0,0,1-1.569-1.984,8.518,8.518,0,0,0-10.676-2.69c-2.832,1.483-4.549,4.448-7.06,6.456-1.286,1.035-2.769,1.8-4.055,2.832a16.739,16.739,0,0,0-5.247,8.487,48.294,48.294,0,0,0-1.42,10.017,9,9,0,0,0,.118,3.043,8,8,0,0,0,1.153,2.314,26.1,26.1,0,0,0,10.275,9.507,15.937,15.937,0,0,0,13.7.243,2.439,2.439,0,0,0,1.051-.847,2.948,2.948,0,0,0,.157-1.812,12.433,12.433,0,0,1,1.373-6.934c.784-1.569,1.953-2.918,2.589-4.549a16.159,16.159,0,0,0,.737-5.632C481.189,460.966,480.852,456.048,482.091,451.295Z" transform="translate(-300.925 -146.997)" fill="#2d293d"/>
    <path id="Polygon_2" data-name="Polygon 2" d="M8.252,3.147a2,2,0,0,1,3.5,0l6.6,11.882A2,2,0,0,1,16.6,18H3.4a2,2,0,0,1-1.748-2.971Z" transform="translate(219.99 213.977) rotate(90)" fill="#fff"/>
    <g id="Repeat_Grid_1" data-name="Repeat Grid 1" transform="translate(258.076 220.094)" clip-path="url(#clip-path)">
      <g transform="translate(-329.99 -297.58)">
        <rect id="Rectangle_365" data-name="Rectangle 365" width="26" height="9.73" transform="translate(329.99 297.58)" fill="#6763ff"/>
      </g>
      <g transform="translate(-293.99 -297.58)">
        <rect id="Rectangle_365-2" data-name="Rectangle 365" width="26" height="9.73" transform="translate(329.99 297.58)" fill="#6763ff"/>
      </g>
      <g transform="translate(-257.99 -297.58)">
        <rect id="Rectangle_365-3" data-name="Rectangle 365" width="26" height="9.73" transform="translate(329.99 297.58)" fill="#6763ff"/>
      </g>
    </g>
  </g>
</svg>
