<svg xmlns="http://www.w3.org/2000/svg" width="255.232" height="79.76"><path data-name="Path 222" d="M247.256 79.76H7.976A8 8 0 010 71.784V7.976A8 8 0 017.976 0h239.28a8 8 0 017.976 7.976v63.808a8 8 0 01-7.976 7.976z" fill="#0b0b20"/><path data-name="Path 223" d="M53.838 39.482c0-6.181 5.184-9.172 5.384-9.372a12.424 12.424 0 00-8.973-4.985c-3.789-.4-7.577 2.193-9.372 2.193-1.994 0-4.985-2.193-8.175-2.193a11.846 11.846 0 00-10.169 6.179c-4.387 7.577-1.2 18.744 2.991 24.925 2.193 2.991 4.586 6.381 7.777 6.181s4.387-1.994 8.175-1.994 4.786 1.994 8.175 1.994 5.583-2.991 7.577-5.982a22.856 22.856 0 003.39-6.979c-.2-.197-6.78-2.59-6.78-9.967z" fill="#fff"/><path data-name="Path 224" d="M47.657 21.136a12.366 12.366 0 002.587-7.976 10.679 10.679 0 00-7.178 3.789 10.083 10.083 0 00-2.592 7.577c2.597.199 5.388-1.396 7.183-3.39z" fill="#fff"/><path data-name="Path 225" d="M99.301 62.014h-4.387l-2.393-7.577h-8.374l-2.193 7.577h-4.188l8.375-25.723h5.184zm-7.577-10.768l-2.193-6.78c-.2-.6-.6-2.393-1.4-4.786-.2 1-.6 2.792-1.2 4.786l-2.193 6.78z" fill="#fff"/><path data-name="Path 226" d="M120.637 52.642a10.618 10.618 0 01-2.592 7.577 7.67 7.67 0 01-5.783 2.393c-2.393 0-4.187-.8-5.184-2.592v9.77h-4.187V49.85c0-1.994 0-3.988-.2-6.181h3.589l.2 2.991a6.87 6.87 0 016.181-3.39 6.431 6.431 0 015.384 2.592c1.794 1.595 2.592 3.789 2.592 6.78zm-4.187 0a7.164 7.164 0 00-1.2-4.387 4.026 4.026 0 00-3.589-1.795 4.764 4.764 0 00-2.792 1 4.433 4.433 0 00-1.6 2.592 3.509 3.509 0 00-.2 1.2v3.19a5.031 5.031 0 001.2 3.39 3.967 3.967 0 003.19 1.4 4.026 4.026 0 003.589-1.795 7.2 7.2 0 001.402-4.795z" fill="#fff"/><path data-name="Path 227" d="M141.973 52.642a10.618 10.618 0 01-2.592 7.577 7.67 7.67 0 01-5.783 2.393c-2.393 0-4.187-.8-5.184-2.592v9.77h-4.187V49.85c0-1.994 0-3.988-.2-6.181h3.589l.2 2.991a6.87 6.87 0 016.181-3.39 6.431 6.431 0 015.384 2.592c1.794 1.595 2.592 3.789 2.592 6.78zm-4.187 0a7.164 7.164 0 00-1.2-4.387 4.026 4.026 0 00-3.589-1.795 4.764 4.764 0 00-2.792 1 4.433 4.433 0 00-1.6 2.592 3.508 3.508 0 00-.2 1.2v3.19a5.031 5.031 0 001.2 3.39 3.967 3.967 0 003.19 1.4 4.026 4.026 0 003.589-1.795 7.2 7.2 0 001.402-4.795z" fill="#fff"/><path data-name="Path 228" d="M165.901 54.835a7.363 7.363 0 01-2.193 5.384c-1.6 1.6-3.988 2.193-6.979 2.193a12.328 12.328 0 01-6.58-1.6l1-3.39a12.181 12.181 0 005.982 1.6 5.921 5.921 0 003.589-1 3.62 3.62 0 001.2-2.792 3.791 3.791 0 00-1-2.592 9.992 9.992 0 00-3.589-1.994c-4.586-1.6-6.78-4.187-6.78-7.378a6.431 6.431 0 012.393-5.184c1.6-1.4 3.589-1.994 6.381-1.994a12.433 12.433 0 015.783 1.2l-1 3.39a9.713 9.713 0 00-4.985-1.2 5.7 5.7 0 00-3.39 1 3.3 3.3 0 00-1 2.393 3.51 3.51 0 001.2 2.592 15.472 15.472 0 003.789 1.994 13.452 13.452 0 014.985 3.19 8.025 8.025 0 011.194 4.188z" fill="#fff"/><path data-name="Path 229" d="M179.46 46.66h-4.586v8.973c0 2.193.8 3.39 2.393 3.39a4.426 4.426 0 001.795-.2l.2 3.19a7.306 7.306 0 01-3.19.4 4.69 4.69 0 01-3.789-1.4c-1-1-1.4-2.592-1.4-4.985V46.66h-2.789v-3.19h2.792v-3.387l3.988-1.2v4.586h4.586z" fill="#fff"/><path data-name="Path 230" d="M199.998 52.641a10.228 10.228 0 01-2.393 6.979 9.165 9.165 0 01-6.78 2.792 8.42 8.42 0 01-6.58-2.792 9.712 9.712 0 01-2.393-6.78 9.476 9.476 0 012.592-6.979 8.854 8.854 0 016.78-2.792 8.42 8.42 0 016.58 2.792 10.629 10.629 0 012.194 6.78zm-4.387.2a7.583 7.583 0 00-1.2-4.387 4.369 4.369 0 00-7.577 0 8.039 8.039 0 00-1.2 4.387 7.583 7.583 0 001.2 4.387 4.275 4.275 0 003.789 2.193 4.516 4.516 0 003.789-2.193 8.039 8.039 0 001.2-4.387z" fill="#fff"/><path data-name="Path 231" d="M213.357 47.058c-.4 0-.8-.2-1.4-.2a4.259 4.259 0 00-3.39 1.6 6.886 6.886 0 00-1 3.589v9.771h-4.179V49.052a52.29 52.29 0 00-.2-5.783h3.589l.2 3.589h.2a7.888 7.888 0 011.994-2.991 5.934 5.934 0 012.991-1h1v4.187z" fill="#fff"/><path data-name="Path 232" d="M231.702 51.844a4.426 4.426 0 01-.2 1.795H219.14a5.15 5.15 0 001.795 4.187 6.422 6.422 0 003.988 1.4 13.093 13.093 0 004.985-.8l.6 2.792a14.864 14.864 0 01-6.181 1.2 8.724 8.724 0 01-6.78-2.592 9.381 9.381 0 01-2.393-6.78 11.216 11.216 0 012.193-6.979 7.966 7.966 0 016.58-2.991 6.636 6.636 0 015.982 2.991 8.371 8.371 0 011.793 5.777zm-3.789-1a5.851 5.851 0 00-.8-3.19 3.593 3.593 0 00-3.19-1.795 3.875 3.875 0 00-3.19 1.6 7.614 7.614 0 00-1.2 3.19h8.375z" fill="#fff"/><path data-name="Path 233" d="M90.528 20.538a6.486 6.486 0 01-1.994 5.184 8.252 8.252 0 01-5.384 1.6 13.2 13.2 0 01-2.991-.2V14.756a19.387 19.387 0 013.589-.2 7.431 7.431 0 014.985 1.4 6.458 6.458 0 011.795 4.582zm-2.193 0a4.69 4.69 0 00-1.2-3.39 4.69 4.69 0 00-3.39-1.2 3.887 3.887 0 00-1.6.2v9.372h1.4a4.875 4.875 0 003.589-1.2 5.4 5.4 0 001.2-3.782z" fill="#fff"/><path data-name="Path 234" d="M101.694 22.533a4.69 4.69 0 01-1.2 3.39 4.108 4.108 0 01-3.39 1.4 3.718 3.718 0 01-3.19-1.4 4.69 4.69 0 01-1.2-3.39 4.69 4.69 0 011.2-3.39 4.108 4.108 0 013.39-1.4 3.718 3.718 0 013.19 1.4 4.69 4.69 0 011.2 3.39zm-1.994 0a4.02 4.02 0 00-.6-2.193 1.744 1.744 0 00-1.795-1 2.094 2.094 0 00-1.795 1 4.32 4.32 0 000 4.387 1.744 1.744 0 001.795 1 1.916 1.916 0 001.795-1.2 2.977 2.977 0 00.6-1.994z" fill="#fff"/><path data-name="Path 235" d="M117.048 17.946l-2.792 9.172h-1.795l-1.2-3.988a16.613 16.613 0 01-.8-2.991 16.61 16.61 0 01-.8 2.991l-1.2 3.988h-1.782l-2.991-9.172h1.994l1 4.387.6 2.991c.2-.8.4-1.795.8-2.991l1.2-4.387h1.6l1.2 4.187a16.613 16.613 0 01.8 2.991l.6-2.991 1.2-4.187z" fill="#fff"/><path data-name="Path 236" d="M127.417 27.118h-1.994v-5.184q0-2.393-1.795-2.393a1.81 1.81 0 00-1.4.6 2.264 2.264 0 00-.6 1.6v5.384h-1.988v-9.178h1.795v1.4a5.287 5.287 0 011-1.2 3.216 3.216 0 011.795-.6 3 3 0 012.193.8c.8.6 1 1.6 1 2.991z" fill="#fff"/><path data-name="Path 237" d="M133 27.119h-1.994v-13.36H133z" fill="#fff"/><path data-name="Path 238" d="M144.964 22.533a4.69 4.69 0 01-1.2 3.39 4.108 4.108 0 01-3.39 1.4 3.718 3.718 0 01-3.19-1.4 4.69 4.69 0 01-1.2-3.39 4.69 4.69 0 011.2-3.39 4.811 4.811 0 013.39-1.4 3.718 3.718 0 013.19 1.4 4.69 4.69 0 011.2 3.39zm-1.994 0a4.02 4.02 0 00-.6-2.193 1.744 1.744 0 00-1.795-1 2.094 2.094 0 00-1.795 1 4.32 4.32 0 000 4.387 1.744 1.744 0 001.795 1 1.916 1.916 0 001.795-1.2 2.977 2.977 0 00.6-1.994z" fill="#fff"/><path data-name="Path 239" d="M154.734 27.119h-1.795l-.2-1a3.215 3.215 0 01-2.592 1.2 2.312 2.312 0 01-1.994-.8 3.583 3.583 0 01-.8-1.795 2.705 2.705 0 011.4-2.592 7.452 7.452 0 013.988-.8v-.2a1.586 1.586 0 00-1.795-1.795 4.737 4.737 0 00-2.393.6l-.4-1.4a5.059 5.059 0 013.19-.8c2.393 0 3.589 1.2 3.589 3.789v3.39a9.784 9.784 0 00-.198 2.203zm-1.994-3.19v-1.4c-2.193 0-3.39.6-3.39 1.795a1.363 1.363 0 001.4 1.4 2.834 2.834 0 001.2-.4 1.991 1.991 0 00.8-1z" fill="#fff"/><path data-name="Path 240" d="M166.299 27.118h-1.794v-1.4a2.943 2.943 0 01-2.991 1.6 3.62 3.62 0 01-2.792-1.2 4.608 4.608 0 01-1-3.39 5.567 5.567 0 011.2-3.589 3.937 3.937 0 012.792-1.2 2.962 2.962 0 012.592 1.2v-5.181h1.994v13.16zm-1.994-3.789v-2.193a4.171 4.171 0 00-.8-1.2 1.682 1.682 0 00-1.4-.4 2.094 2.094 0 00-1.795 1 4.252 4.252 0 00-.6 2.393 3.582 3.582 0 00.6 2.193 2.094 2.094 0 001.795 1 1.814 1.814 0 001.6-.8 4.458 4.458 0 00.6-1.992z" fill="#fff"/><path data-name="Path 241" d="M183.647 22.533a4.69 4.69 0 01-1.2 3.39 4.108 4.108 0 01-3.39 1.4 3.718 3.718 0 01-3.19-1.4 4.69 4.69 0 01-1.2-3.39 4.69 4.69 0 011.207-3.386 4.108 4.108 0 013.39-1.4 3.719 3.719 0 013.19 1.4 4.69 4.69 0 011.193 3.386zm-2.193 0a4.02 4.02 0 00-.6-2.193 1.744 1.744 0 00-1.795-1 2.094 2.094 0 00-1.795 1 4.32 4.32 0 000 4.387 1.744 1.744 0 001.795 1 1.916 1.916 0 001.795-1.2 2.977 2.977 0 00.6-1.994z" fill="#fff"/><path data-name="Path 242" d="M194.615 27.118h-1.994v-5.184q0-2.393-1.795-2.393a1.81 1.81 0 00-1.4.6 2.264 2.264 0 00-.6 1.6v5.384h-1.988v-9.178h1.795v1.4a5.287 5.287 0 011-1.2 3.216 3.216 0 011.795-.6 3 3 0 012.193.8c.8.6 1 1.6 1 2.991z" fill="#fff"/><path data-name="Path 243" d="M208.174 19.542h-2.194v4.387c0 1.2.4 1.6 1.2 1.6h1v1.6a3.887 3.887 0 01-1.6.2 1.944 1.944 0 01-1.795-.8 3.833 3.833 0 01-.6-2.393v-4.594h-1.4v-1.6h1.4v-1.589l1.994-.6v2.193h2.193v1.6z" fill="#fff"/><path data-name="Path 244" d="M218.941 27.119h-1.994v-5.185q0-2.393-1.795-2.393a1.919 1.919 0 00-1.994 1.4v6.178h-1.994v-13.36h1.994v5.583a3.182 3.182 0 012.792-1.6 2.312 2.312 0 011.994.8 4.487 4.487 0 011 2.991z" fill="#fff"/><path data-name="Path 245" d="M229.908 22.133v1h-5.982a2.658 2.658 0 00.8 1.994 3.369 3.369 0 001.994.6 7.437 7.437 0 002.393-.4l.4 1.4a6.659 6.659 0 01-2.991.6 4.69 4.69 0 01-3.39-1.2 4.69 4.69 0 01-1.2-3.39 4.69 4.69 0 011.2-3.39 3.718 3.718 0 013.19-1.4 3.148 3.148 0 012.991 1.4 5.281 5.281 0 01.595 2.786zm-1.795-.6a3.757 3.757 0 00-.4-1.6 1.618 1.618 0 00-1.6-.8 1.814 1.814 0 00-1.6.8 2.264 2.264 0 00-.6 1.6z" fill="#fff"/></svg>