<svg xmlns="http://www.w3.org/2000/svg" xmlns:xlink="http://www.w3.org/1999/xlink" width="533.303" height="602.457"><defs><linearGradient id="a" x1=".5" y1="1" x2=".5" gradientUnits="objectBoundingBox"><stop offset="0" stop-color="gray" stop-opacity=".251"/><stop offset=".54" stop-color="gray" stop-opacity=".122"/><stop offset="1" stop-color="gray" stop-opacity=".102"/></linearGradient><linearGradient id="b" x1=".5" y1="1" x2=".5" y2="0" xlink:href="#a"/><linearGradient id="c" x1="-.001" y1=".5" x2="1" y2=".5" xlink:href="#a"/><clipPath id="d"><path fill="none" d="M0 0h77.654v7.632H0z"/></clipPath></defs><g transform="translate(-.093 -.05)"><g data-name="Group 24" transform="translate(377.797 313.043)" opacity=".2" fill="#6763ff"><path data-name="Path 278" d="M18.425 236.863a18.248 18.248 0 01-1.655 2.549q-8.244-5.8-16.77-11.381l.369-.729a16.1 16.1 0 015.7-6.212c3.137-1.93 6.675-2.353 9.585-.784s4.534 4.706 4.706 8.369a16.16 16.16 0 01-1.935 8.188z"/><ellipse data-name="Ellipse 1" cx="13.374" cy="10.213" rx="13.374" ry="10.213" transform="rotate(-62.09 187.58 110.912)"/><ellipse data-name="Ellipse 2" cx="13.374" cy="10.213" rx="13.374" ry="10.213" transform="rotate(-62.09 179.41 97.334)"/><ellipse data-name="Ellipse 3" cx="13.374" cy="10.213" rx="13.374" ry="10.213" transform="rotate(-62.09 171.238 83.757)"/><ellipse data-name="Ellipse 4" cx="13.374" cy="10.213" rx="13.374" ry="10.213" transform="rotate(-62.09 163.07 70.19)"/><path data-name="Path 279" d="M58.539 57.63a48.408 48.408 0 01-.784-6.73l25.822 8.691-25.751-13.4a48.985 48.985 0 0117.319-34.694l24.951 36.082L80.722 7.45a48.922 48.922 0 1145.777 86.2 48.957 48.957 0 01.784 10.5l-39.219-.314 38.655 6.369a48.922 48.922 0 01-28.464 36.866 48.922 48.922 0 11-67.967-36 48.938 48.938 0 0128.316-53.456z"/><path data-name="Path 280" d="M121.596 125.252a48.743 48.743 0 01-23.406 21.83 48.922 48.922 0 11-67.967-36c-1.899-10.422 93.949 9.315 91.373 14.17z" opacity=".1"/></g><g data-name="Group 25" transform="translate(.093 1.008)" opacity=".2" fill="#6763ff"><path data-name="Path 281" d="M170.139 486.672a33.941 33.941 0 001.875 5.53q18.127-6.942 36.67-13.335c-.11-.5-.22-1.02-.345-1.569a31.006 31.006 0 00-7.711-14.292c-4.934-5.083-11.334-7.562-17.492-6.055s-10.691 6.644-12.738 13.405a31.022 31.022 0 00-.259 16.316z"/><ellipse data-name="Ellipse 5" cx="19.665" cy="25.736" rx="19.665" ry="25.736" transform="rotate(-13.72 1869.834 -435.315)"/><ellipse data-name="Ellipse 6" cx="19.665" cy="25.736" rx="19.665" ry="25.736" transform="rotate(-13.72 1739.08 -419.554)"/><ellipse data-name="Ellipse 7" cx="19.665" cy="25.736" rx="19.665" ry="25.736" transform="rotate(-13.72 1608.332 -403.835)"/><ellipse data-name="Ellipse 8" cx="19.665" cy="25.736" rx="19.665" ry="25.736" transform="rotate(-13.72 1477.617 -388.112)"/><path data-name="Path 282" d="M179.85 133.173a93.076 93.076 0 004.557-12.205l-52.2 4.011 54.4-12.875a94.377 94.377 0 00-15.947-72.948l-63.629 55.582 55.115-65.759A94.181 94.181 0 1036.007 168.251a93.606 93.606 0 00-6.361 19.233l73.411 17.947-75.144-6.369a94.236 94.236 0 0035.721 82.361 94.181 94.181 0 10143.833-35.1 94.189 94.189 0 00-27.618-113.148z"/><path data-name="Path 283" d="M30.251 229.605a93.742 93.742 0 0033.384 51.77 94.181 94.181 0 10143.833-35.1c8.463-18.544-179.727-26.937-177.217-16.67z" opacity=".1"/></g><path data-name="Path 284" d="M738.807 197.981h-1.749v-94.33c0-20.8-17.123-37.651-38.247-37.651h-214.24c-21.124 0-38.247 16.864-38.247 37.651v39.1h-.51a2.236 2.236 0 00-2.251 2.212v18.827a2.235 2.235 0 002.252 2.21h.549v19.225h-.69a2.228 2.228 0 00-2.243 2.212v36a2.235 2.235 0 002.243 2.22h.69v14.119h-.6a2.228 2.228 0 00-2.251 2.212v36.349a2.228 2.228 0 002.251 2.212h.6v329.738c0 20.8 17.123 37.651 38.247 37.651H698.8c21.124 0 38.247-16.864 38.247-37.651V268.529h1.757a2.235 2.235 0 002.251-2.212v-66.124a2.236 2.236 0 00-2.251-2.212z" transform="translate(-299.53 -65.95)" fill="url(#a)"/><g data-name="Group 26" transform="translate(148.136 3.972)" opacity=".9"><rect data-name="Rectangle 325" width="8.448" height="69.669" rx="2.29" transform="translate(281.085 130.373)" fill="#e5e7eb"/><rect data-name="Rectangle 326" width="4.746" height="22.936" rx="2.29" transform="translate(.173 75.795)" fill="#e5e7eb"/><rect data-name="Rectangle 327" width="5.35" height="39.918" rx="2.29" transform="translate(0 117.784)" fill="#e5e7eb"/><rect data-name="Rectangle 328" width="5.091" height="40.263" rx="2.29" transform="translate(.086 171.671)" fill="#e5e7eb"/><rect data-name="Rectangle 329" width="282.788" height="574.729" rx="38.99" transform="translate(2.855)" fill="#fff"/><rect data-name="Rectangle 330" width="39.494" height="8.016" rx="3.87" transform="translate(116.976 17.162)" fill="#e5e7eb"/><circle data-name="Ellipse 9" cx="4.549" cy="4.549" r="4.549" transform="translate(162.431 16.621)" fill="#e5e7eb"/></g><path data-name="Path 285" d="M393.862 18.946H361.49v3.922a18.5 18.5 0 01-18.5 18.488H239.784a18.5 18.5 0 01-18.5-18.488v-3.922H190.92a22.457 22.457 0 00-22.457 22.457v499.875a22.457 22.457 0 0022.457 22.457h202.942a22.457 22.457 0 0022.458-22.457V41.403a22.457 22.457 0 00-22.458-22.457z" fill="#ececf3"/><ellipse data-name="Ellipse 10" cx="44.859" cy="7.585" rx="44.859" ry="7.585" transform="translate(23.607 583.501)" fill="#6c63ff"/><path data-name="Path 286" d="M87.019 578.677c1.922-1.788 3.726-3.922 4.275-6.456s-.533-5.64-2.989-6.573c-2.745-1.051-5.679.847-7.9 2.769s-4.777 4.118-7.687 3.71a11.688 11.688 0 003.616-10.981 4.526 4.526 0 00-1-2.22c-1.522-1.631-4.283-.933-6.11.353-5.8 4.079-7.42 11.962-7.452 19.061-.588-2.565-.094-5.232-.11-7.844s-.729-5.538-2.941-6.95a8.933 8.933 0 00-4.5-1.051c-2.6-.094-5.491.165-7.287 2.071-2.22 2.353-1.639 6.346.282 8.958s4.855 4.244 7.554 6.048a16.726 16.726 0 015.389 5.146 4.632 4.632 0 01.4.918h16.339a45.815 45.815 0 0010.121-6.959z" fill="#6763ff"/><g data-name="Group 27" transform="translate(460.754 530.442)" opacity=".4" fill="#6763ff"><ellipse data-name="Ellipse 11" cx="25.602" cy="4.33" rx="25.602" ry="4.33" transform="translate(0 14.585)"/><path data-name="Path 287" d="M36.187 11.833a7.483 7.483 0 002.447-3.679 3.286 3.286 0 00-1.71-3.757c-1.569-.6-3.24.486-4.51 1.569s-2.722 2.353-4.385 2.118a6.66 6.66 0 002.063-6.275 2.556 2.556 0 00-.573-1.263c-.871-.934-2.447-.533-3.483.2-3.31 2.353-4.236 6.832-4.259 10.879a20.83 20.83 0 01-.055-4.479 4.642 4.642 0 00-1.686-3.969 5.114 5.114 0 00-2.565-.6c-1.49-.055-3.138.094-4.165 1.177-1.263 1.357-.933 3.624.165 5.114a16 16 0 004.316 3.447 9.639 9.639 0 013.075 2.934 2.659 2.659 0 01.227.525h9.334a25.88 25.88 0 005.764-3.942z"/></g><g data-name="Group 28" transform="translate(68.623 481.784)" opacity=".4" fill="#6763ff"><ellipse data-name="Ellipse 12" cx="25.602" cy="4.33" rx="25.602" ry="4.33" transform="translate(0 14.587)"/><path data-name="Path 288" d="M36.191 11.834a7.4 7.4 0 002.439-3.687 3.271 3.271 0 00-1.71-3.749c-1.569-.6-3.24.486-4.5 1.569s-2.73 2.353-4.385 2.118a6.7 6.7 0 002.063-6.275 2.651 2.651 0 00-.573-1.271c-.871-.926-2.447-.526-3.491.2-3.31 2.353-4.236 6.824-4.251 10.872a20.327 20.327 0 01-.063-4.479c-.008-1.5-.416-3.138-1.679-3.922a5.067 5.067 0 00-2.573-.6c-1.483-.055-3.138.094-4.157 1.184-1.263 1.357-.933 3.624.165 5.114a16.238 16.238 0 004.306 3.451 9.484 9.484 0 013.075 2.934 3.22 3.22 0 01.235.526h9.326a26.109 26.109 0 005.773-3.985z"/></g><path data-name="Rectangle 331" fill="#d6d8e0" d="M187.473 60.448h40.074v40.074h-40.074z"/><path data-name="Rectangle 332" fill="#d6d8e0" d="M257.119 63.311h83.961v7.632h-83.961z"/><path data-name="Rectangle 333" fill="#d6d8e0" d="M257.119 76.669h138.342v7.632H257.119z"/><path data-name="Rectangle 334" fill="#d6d8e0" d="M257.119 90.027h138.342v7.632H257.119z"/><path data-name="Rectangle 335" fill="#d6d8e0" d="M187.779 133.914h40.074v40.074h-40.074z"/><path data-name="Rectangle 336" fill="#d6d8e0" d="M257.425 136.777h83.961v7.632h-83.961z"/><path data-name="Rectangle 337" fill="#d6d8e0" d="M257.425 150.135h138.342v7.632H257.425z"/><path data-name="Rectangle 338" fill="#d6d8e0" d="M257.425 163.485h138.342v7.632H257.425z"/><path data-name="Rectangle 339" fill="#d6d8e0" d="M188.085 207.379h40.074v40.074h-40.074z"/><path data-name="Rectangle 340" fill="#d6d8e0" d="M257.739 210.235H341.7v7.632h-83.961z"/><path data-name="Rectangle 341" fill="#d6d8e0" d="M257.739 223.593h138.342v7.632H257.739z"/><path data-name="Rectangle 342" fill="#d6d8e0" d="M257.739 236.951h138.342v7.632H257.739z"/><path data-name="Rectangle 343" fill="#d6d8e0" d="M188.391 280.837h40.074v40.074h-40.074z"/><path data-name="Rectangle 344" fill="#d6d8e0" d="M258.044 283.7h83.961v7.632h-83.961z"/><path data-name="Rectangle 345" fill="#d6d8e0" d="M258.044 297.059h138.342v7.632H258.044z"/><path data-name="Rectangle 346" fill="#d6d8e0" d="M258.044 310.417h138.342v7.632H258.044z"/><path data-name="Rectangle 347" fill="#d6d8e0" d="M188.705 354.303h40.074v40.074h-40.074z"/><path data-name="Rectangle 348" fill="#d6d8e0" d="M258.35 357.166h83.961v7.632H258.35z"/><path data-name="Rectangle 349" fill="#d6d8e0" d="M258.35 370.524h138.342v7.632H258.35z"/><path data-name="Rectangle 350" fill="#d6d8e0" d="M258.35 383.882h138.342v7.632H258.35z"/><path data-name="Rectangle 351" fill="#d6d8e0" d="M189.01 427.769h40.074v40.074H189.01z"/><path data-name="Rectangle 352" fill="#d6d8e0" d="M258.656 430.632h83.961v7.632h-83.961z"/><path data-name="Rectangle 353" fill="#d6d8e0" d="M258.656 443.99h138.342v7.632H258.656z"/><path data-name="Rectangle 354" fill="#d6d8e0" d="M258.656 457.348h138.342v7.632H258.656z"/><path data-name="Rectangle 355" fill="#d6d8e0" d="M189.316 501.235h40.074v40.074h-40.074z"/><path data-name="Rectangle 356" fill="#d6d8e0" d="M258.962 504.098h83.961v7.632h-83.961z"/><path data-name="Rectangle 357" fill="#d6d8e0" d="M258.962 517.456h138.342v7.632H258.962z"/><path data-name="Rectangle 358" fill="#d6d8e0" d="M258.962 530.814h138.342v7.632H258.962z"/><path data-name="Rectangle 359" transform="translate(121.608 181.283)" fill="url(#b)" d="M0 0h341.562v84.91H0z"/><path data-name="Rectangle 360" fill="#fff" d="M123.514 183.197h338.699v81.098H123.514z"/><rect data-name="Rectangle 361" width="40.074" height="40.074" rx="20.037" transform="translate(189.05 203.622)" fill="#6c63ff"/><g data-name="Group 29"><path data-name="Rectangle 362" fill="#6763ff" d="M258.523 206.571h83.961v7.632h-83.961z" opacity=".5"/></g><path data-name="Path 289" d="M537.166 390.057a6.978 6.978 0 00-8.244-1.255c-1.992 1.2-3.09 3.436-4.094 5.546-1.467 3.138-3.616 6.071-4.275 9.46-1.812 9.342-9.248 16.6-12.229 25.626-1.067 3.224-1.569 6.683-3.255 9.624a30.631 30.631 0 01-2.667 3.671 103.383 103.383 0 00-10.2 15.554c-1.694.329-3.2 1.765-4.644 2.887a16.025 16.025 0 01-6.275 2.973 5.921 5.921 0 00-2.573.941c-1.082.9-1.232 2.526-2.11 3.616a5.631 5.631 0 01-2.353 1.569c0-.275-.039-.549-.047-.831-.039-1.451-.063-2.91-.063-4.369a16.425 16.425 0 00-.047-21.32 32.159 32.159 0 01.9-6.738 2.993 2.993 0 00-.635-3.09c-.431-.337-.988-.463-1.451-.784a6.322 6.322 0 01-1.569-1.992 8.471 8.471 0 00-10.652-2.722c-2.832 1.49-4.549 4.471-7.06 6.495-1.286 1.035-2.769 1.812-4.055 2.855a16.841 16.841 0 00-5.248 8.534 48.884 48.884 0 00-1.428 10.072 9.092 9.092 0 00.118 3.059 8.078 8.078 0 001.153 2.353 26.371 26.371 0 009.75 9.3 3.816 3.816 0 010 .6 4.339 4.339 0 01-.173.933l-.455-.125c-1.679-.377-3.491-.329-5-1.169-2.573-1.443-3.349-4.965-5.812-6.581a4.449 4.449 0 00-.659-.353 44.019 44.019 0 00-2.526-13.076c-.722-2.008-1.608-4.055-1.5-6.2a15.236 15.236 0 011.89-5.608 142.562 142.562 0 007.06-19.319q1.953-6.173 3.922-12.354a19.476 19.476 0 003.444-3.279 17.484 17.484 0 003.992-8.573 12.142 12.142 0 00-2.2-9.068 5.24 5.24 0 00-3.687-2.259 4.793 4.793 0 00-3.443 1.569 15.311 15.311 0 00-2.949 5.067c-1.286 3.036-2.588 6.189-2.463 9.483.1 2.73 1.122 5.781-.471 8-5.216 7.271-9.154 15.633-13.288 23.587a42.2 42.2 0 00-2.683 5.914 32.948 32.948 0 00-1.4 10.2 136.738 136.738 0 001.726 19.327 24.836 24.836 0 002.283 8.471 35.528 35.528 0 00-1.4 9.538 5.436 5.436 0 00.345 2.188 9.037 9.037 0 001.733 2.181 9.765 9.765 0 012.353 7.719 21.892 21.892 0 00.7 7.734c1.569 6.966 3.138 13.923 4.393 20.943a13.4 13.4 0 01.3 3.985c-.243 1.9-1.294 3.7-1.067 5.608a21.228 21.228 0 01.5 2.683 6.628 6.628 0 01-.471 2.008c-1.788 5.2-6.6 17.123-6.542 22.63l1.255-.3c-1.263 7.146-4.22 13.978-5.773 21.1a70.6 70.6 0 00-1.459 15.782 58.539 58.539 0 01-.126 7.138c-.243 2.11-.784 4.173-1.082 6.275a56.846 56.846 0 00-.377 8.495 86.743 86.743 0 00.784 13.335c1.2 7.53-.9 15.013-1.475 22.614a135.919 135.919 0 01-1.8 15.86c-.431 2.212-.973 4.408-1.271 6.644-.879 6.636.4 13.476-.98 20.025-.651 3.067-1.812 6.51-.1 9.13.541.824 1.318 1.467 1.906 2.259a2.871 2.871 0 01.549 2.769c-.337.722-1.122 1.192-1.318 1.961-.314 1.208.949 2.2 2.079 2.714l.322.125a2.91 2.91 0 00.612 2.353 4.988 4.988 0 002.408 1.255l14.809 4.487c3.3 1 6.895 1.992 10.2 1.177a2.564 2.564 0 00.588 1.271 4.989 4.989 0 002.408 1.255l14.7 4.455c3.781 1.145 7.93 2.275 11.562.722a6.566 6.566 0 002.651-2 7 7 0 00.941-5.859 4.777 4.777 0 00-1.428-2.62 6.275 6.275 0 00-3.42-1.122 6.91 6.91 0 01-3-.784 2.158 2.158 0 01-.682-.714q1.271-1.255 2.463-2.6c-.643-.22-.871-1.145-.933-1.82-.933-9.993 2.832-19.759 4.259-29.689a63.535 63.535 0 00.377-15.044c-.173-1.89-.431-3.773-.51-5.671-.369-9.883 4.353-19.39 4.189-29.281-.078-4.628 2.353-9.193 3.538-13.672a49.493 49.493 0 001.09-12.236l.188-32.364c0-4.377 0-8.856-1.4-12.989a16.472 16.472 0 01-.565-7.107c3.993-1.765 7.773-4.377 12.04-3.922 1.137-3.02-.212-13.084-1.279-16.135a69.388 69.388 0 01-2.353-37.368c.965-4.463-.361-9.209.714-13.656a8.259 8.259 0 011.169-2.934 3.138 3.138 0 012.69-1.42c0-2.722-.055-5.491-.235-8.252a19.61 19.61 0 004.369-5.028c2.353-3.922 3.695-8.338 5.318-12.605 2.879-7.53 6.809-14.6 10.111-21.963s3.624-15.421 6.275-23.045a17.319 17.319 0 018.432-9.711c1.569-.784 3.24-1.349 4.377-2.636a7.058 7.058 0 001.522-3.742 9.891 9.891 0 00-2.526-8.346zm-91.773 324.054c.322-.353.635-.706.933-1.09-.988-.157-2.2-.879-2.22-1.883a10.408 10.408 0 01.643-2.941 11.766 11.766 0 00.22-5.224c-.22-1.216-.628-2.353-.879-3.593a33.55 33.55 0 01-.471-4.063 67.214 67.214 0 00-2.855-14.4c-1.42-4.542.526-9.138 1.028-13.868.243-2.243.133-4.557.918-6.667.463-1.255 1.224-2.353 1.686-3.624 1.075-2.91.439-6.15-.22-9.185 4.644-8.416 6.181-18.457 7.93-27.932l2.949-15.947c.431-2.353.91-4.832 2.353-6.73a82.689 82.689 0 011.788 21.445 31.839 31.839 0 00.078 6.275c.361 2.283 1.31 4.44 1.859 6.683 1.224 4.95.51 10.15.784 15.241.1 2.055.369 4.11.455 6.165.384 9.091-2.659 17.931-5.663 26.52-1.843 5.263-2.251 11.248-3.138 16.762-.831 5.279-1.655 10.566-2.079 15.892-.125 1.624-.227 3.294-.424 4.942a12.91 12.91 0 00-1.53-.243 6.91 6.91 0 01-3-.784 3.491 3.491 0 01-1.153-1.749z" transform="translate(-293.845 -134.657)" fill="url(#c)"/><path data-name="Path 290" d="M183.692 590.216a6.361 6.361 0 013.42 1.114 4.762 4.762 0 011.428 2.6 6.934 6.934 0 01-.941 5.828 6.51 6.51 0 01-2.651 1.977c-3.632 1.569-7.781.431-11.562-.706l-14.811-4.46a4.974 4.974 0 01-2.408-1.247 3.263 3.263 0 01-.063-3.8 7.428 7.428 0 013.137-2.5c4.612-2.243 9.8-2.761 14.9-2.855 1.883-.039 3.734-.447 5.012 1 .675.784.557 1.616 1.569 2.283a6.793 6.793 0 002.965.769z" fill="#3f3d56"/><path data-name="Path 291" d="M155.713 582.066a6.275 6.275 0 013.42 1.106 4.839 4.839 0 011.428 2.6 6.926 6.926 0 01-.941 5.828 6.527 6.527 0 01-2.654 1.989c-3.632 1.569-7.781.424-11.562-.714l-14.809-4.463a4.91 4.91 0 01-2.408-1.247 3.263 3.263 0 01-.063-3.8 7.381 7.381 0 013.138-2.5c4.612-2.243 9.8-2.761 14.864-2.855 1.875 0 3.734-.447 5.012 1 .675.784.557 1.624 1.569 2.282a6.909 6.909 0 003 .777z" fill="#3f3d56"/><path data-name="Path 292" d="M168.577 421.352a182.377 182.377 0 00-26.261-.737 5.154 5.154 0 00-1.7.267c-1.93.784-2.228 3.31-2.416 5.381-.737 8.369-4.432 16.174-6.275 24.387a69.627 69.627 0 00-1.459 15.688 57.648 57.648 0 01-.126 7.06c-.243 2.1-.784 4.149-1.082 6.275a56.123 56.123 0 00-.376 8.44 85.616 85.616 0 00.784 13.233c1.2 7.483-.9 14.9-1.475 22.465a134.381 134.381 0 01-1.8 15.758c-.431 2.2-.973 4.377-1.271 6.6-.879 6.6.4 13.4-.98 19.9-.651 3.043-1.812 6.463-.1 9.068.541.824 1.318 1.459 1.906 2.243a2.847 2.847 0 01.549 2.753c-.337.714-1.122 1.184-1.318 1.945-.314 1.2.949 2.188 2.079 2.7a21.671 21.671 0 0025.226-6.236c-.988-.157-2.2-.871-2.22-1.867a10.3 10.3 0 01.643-2.926 11.61 11.61 0 00.22-5.193c-.22-1.2-.627-2.353-.878-3.569a33.048 33.048 0 01-.471-4.032 66.375 66.375 0 00-2.855-14.307c-1.42-4.51.526-9.075 1.027-13.782.243-2.22.133-4.526.918-6.62.463-1.247 1.224-2.353 1.686-3.6 1.075-2.894.439-6.1-.22-9.122 4.644-8.369 6.181-18.339 7.93-27.752l2.949-15.845c.431-2.353.91-4.793 2.353-6.683a81.648 81.648 0 011.788 21.312 31.375 31.375 0 00.078 6.189c.361 2.267 1.31 4.408 1.859 6.644 1.224 4.91.51 10.079.784 15.139.1 2.039.369 4.079.455 6.126.384 9.028-2.659 17.813-5.663 26.34-1.843 5.232-2.251 11.178-3.138 16.653-.831 5.248-1.655 10.5-2.079 15.79-.384 4.863-.549 10.126-3.577 13.946 2.761 1.8 5.624 3.624 8.856 4.244a16.425 16.425 0 0010.927-2.11 34.517 34.517 0 008.628-7.342c-.643-.22-.871-1.145-.933-1.812-.933-9.922 2.832-19.61 4.259-29.493a62.752 62.752 0 00.369-14.96c-.173-1.875-.431-3.742-.51-5.624-.369-9.821 4.353-19.272 4.189-29.093-.078-4.6 2.353-9.138 3.538-13.586 1.035-3.922 1.067-8.071 1.09-12.15l.188-32.16c0-4.353 0-8.8-1.4-12.911-1.726-4.934.243-10.613.541-15.829a65.276 65.276 0 01-25.242 2.792z" fill="#3f3d56"/><path data-name="Path 293" d="M196.545 328.959a102.547 102.547 0 0112.009-18.966 30.928 30.928 0 002.667-3.64c1.686-2.918 2.188-6.361 3.255-9.562 2.981-8.973 10.417-16.182 12.229-25.461.659-3.365 2.808-6.275 4.275-9.413 1-2.1 2.1-4.314 4.094-5.491a6.978 6.978 0 018.244 1.255 9.774 9.774 0 012.518 8.275 6.91 6.91 0 01-1.522 3.718c-1.137 1.279-2.839 1.859-4.377 2.628a17.178 17.178 0 00-8.432 9.64c-2.62 7.577-2.949 15.594-6.275 22.9s-7.232 14.323-10.111 21.8c-1.624 4.243-2.934 8.628-5.318 12.55s-6.134 7.208-10.636 7.8a26.717 26.717 0 00-1.318-8.346c-.946-3.122-2.726-6.8-1.302-9.687z" fill="#a0616a"/><path data-name="Path 294" d="M147.979 334.813a43.494 43.494 0 00-2.541-16.3c-.722-2-1.608-4.032-1.5-6.157a15.049 15.049 0 011.89-5.569 141.043 141.043 0 007.06-19.2l3.922-12.268a19.611 19.611 0 003.444-3.255 17.366 17.366 0 003.992-8.518 12.017 12.017 0 00-2.2-9.013 5.208 5.208 0 00-3.687-2.235 4.746 4.746 0 00-3.443 1.569 15.169 15.169 0 00-2.949 5.036c-1.286 3.012-2.588 6.15-2.463 9.413.1 2.714 1.122 5.742-.471 7.946-5.216 7.224-9.154 15.531-13.288 23.43a41.73 41.73 0 00-2.683 5.875 32.566 32.566 0 00-1.4 10.15 134.982 134.982 0 001.726 19.2c.549 3.985 1.286 8.33 4.306 10.981 3.144-3.997 6.293-7.934 10.285-11.085z" fill="#a0616a"/><circle data-name="Ellipse 13" cx="16.276" cy="16.276" r="16.276" transform="translate(151.666 305.326)" fill="#a0616a"/><path data-name="Path 295" d="M160.035 338.741c-.392 2.949-1.969 5.577-3.506 8.118-.933 1.569-2.11 3.24-3.922 3.412a78.441 78.441 0 0014.778 5.946 16.8 16.8 0 005.4.871 13.2 13.2 0 004.495-1.153 22.316 22.316 0 0012.66-14.9 29.376 29.376 0 01-6.04-.463 4.457 4.457 0 01-2.965-1.451 4.777 4.777 0 01-.612-2.628q-.118-4.071 0-8.142a32.16 32.16 0 00-11.829 1.451c-1.569.51-3.138 1.13-4.746 1.53-.988.243-3.71 0-4.44.573-1.1.867 1.017 4.836.727 6.836z" fill="#a0616a"/><path data-name="Path 296" d="M167.212 348.632a10.236 10.236 0 00-7.781-9.083c-1.679-.369-3.491-.329-5-1.161-2.573-1.435-3.349-4.934-5.812-6.542s-5.977-.714-8.126 1.326-3.24 4.926-4.118 7.75a39.02 39.02 0 00-2.11 11.884 5.4 5.4 0 00.345 2.181 9.152 9.152 0 001.734 2.173 9.632 9.632 0 012.353 7.656 21.679 21.679 0 00.7 7.695c1.569 6.911 3.138 13.829 4.393 20.8a13.242 13.242 0 01.3 3.922c-.243 1.883-1.294 3.679-1.067 5.561a21.09 21.09 0 01.5 2.675 6.488 6.488 0 01-.471 1.985c-1.788 5.177-6.6 17.021-6.542 22.488 8.354-2.141 20.669-2.62 29.289-2.651a61.551 61.551 0 017.114.314c5.671.6 11.476 2.259 16.974.729 5.1-1.42 9.624-5.491 14.9-4.973 1.137-3-.212-13.005-1.279-16.033a68.508 68.508 0 01-2.353-37.125c.965-4.44-.361-9.146.714-13.562a8.126 8.126 0 011.169-2.918 3.138 3.138 0 012.69-1.412 99.923 99.923 0 00-1.961-21.124c-.526-2.471-1.616-5.389-4.1-5.812-2.243-.377-4.134 1.514-5.93 2.91a16.2 16.2 0 01-6.275 2.949 5.906 5.906 0 00-2.573.933c-1.082.894-1.231 2.51-2.11 3.6-1.569 1.953-5.075 1.781-6.189 4.032a14.119 14.119 0 00-.6 2.063 7.546 7.546 0 01-2.581 3.334 14.559 14.559 0 01-6.197 3.436z" fill="#6763ff"/><path data-name="Path 297" d="M181.166 304.298a2.976 2.976 0 00-.635-3.075c-.431-.337-.988-.463-1.451-.784a6.275 6.275 0 01-1.569-1.984 8.518 8.518 0 00-10.676-2.69c-2.832 1.483-4.549 4.448-7.06 6.456-1.286 1.035-2.769 1.8-4.055 2.832a16.739 16.739 0 00-5.247 8.487 48.294 48.294 0 00-1.42 10.017 9 9 0 00.118 3.043 8 8 0 001.153 2.314 26.1 26.1 0 0010.275 9.507 15.937 15.937 0 0013.7.243 2.439 2.439 0 001.051-.847 2.948 2.948 0 00.157-1.812 12.433 12.433 0 011.373-6.934c.784-1.569 1.953-2.918 2.589-4.549a16.159 16.159 0 00.737-5.632c.058-4.921-.279-9.839.96-14.592z" fill="#2d293d"/><path data-name="Polygon 2" d="M216.843 222.229a2 2 0 010 3.5l-11.882 6.6a2 2 0 01-2.971-1.752v-13.2a2 2 0 012.971-1.748z" fill="#fff"/><g data-name="Repeat Grid 1" transform="translate(258.076 220.094)" clip-path="url(#d)"><path data-name="Rectangle 365" fill="#6763ff" d="M0 0h26v9.73H0zm36 0h26v9.73H36zm36 0h26v9.73H72z"/></g></g></svg>