<svg xmlns="http://www.w3.org/2000/svg" width="255.232" height="79.76"><defs><linearGradient id="a" x1=".295" y1="-.061" x2=".551" y2=".922" gradientUnits="objectBoundingBox"><stop offset="0" stop-color="#006884"/><stop offset="1" stop-color="#8ad1d0"/></linearGradient><linearGradient id="b" x1="-.075" y1=".158" x2=".915" y2=".863" gradientUnits="objectBoundingBox"><stop offset="0" stop-color="#24bbb6"/><stop offset="1" stop-color="#dbe692"/></linearGradient><linearGradient id="c" x1=".499" y1="1.058" x2=".499" y2="-.031" gradientUnits="objectBoundingBox"><stop offset="0" stop-color="#fcc072"/><stop offset="1" stop-color="#f58a5b"/></linearGradient><linearGradient id="d" x1=".112" y1="1.178" x2=".904" y2=".121" gradientUnits="objectBoundingBox"><stop offset="0" stop-color="#712b8f"/><stop offset="1" stop-color="#ea1d27"/></linearGradient></defs><path data-name="Path 246" d="M247.256 79.76H7.976A8 8 0 010 71.784V7.976A8 8 0 017.976 0h239.28a8 8 0 017.976 7.976v63.808a8 8 0 01-7.976 7.976z" fill="#0b0b20"/><path data-name="Path 247" d="M195.3 49.63V28.693a2.184 2.184 0 011.994-2.193 2.977 2.977 0 011.994.6l38.484 21.136a1.662 1.662 0 010 3.19l-38.484 21.135a3.916 3.916 0 01-1.994.6 2.184 2.184 0 01-1.994-2.193z" transform="translate(-175.759 -10.548)" fill-rule="evenodd" fill="url(#a)"/><path data-name="Path 248" d="M219.43 49.83L196.1 26.5h.4a2.977 2.977 0 011.994.6l28.315 15.553z" transform="translate(-174.964 -10.548)" fill-rule="evenodd" fill="url(#b)"/><path data-name="Path 249" d="M214.978 48.956l-7.178-7.178 7.378-7.378 10.169 5.583a1.662 1.662 0 010 3.19z" transform="translate(-163.334 -2.695)" fill-rule="evenodd" fill="url(#c)"/><path data-name="Path 250" d="M196.2 61.23l23.13-23.13 7.178 7.178-28.115 15.354a3.207 3.207 0 01-2.193.6z" transform="translate(-174.864 .982)" fill-rule="evenodd" fill="url(#d)"/><path data-name="Path 251" d="M141.773 67.592a9.55 9.55 0 01-2.193-2.991l3.19-1.4a18.376 18.376 0 001 1.6 4.923 4.923 0 003.19 1.6 4.565 4.565 0 003.39-1.6 6.179 6.179 0 001-3.39v-1.2c-2.393 2.991-7.378 2.592-10.169-.6a8.834 8.834 0 010-11.765c2.991-2.991 7.378-3.39 9.97-.6v-1.4h3.39v14.971c0 3.789-1.4 5.982-3.19 7.378a7.359 7.359 0 01-4.586 1.4 9.15 9.15 0 01-4.992-2.003zm83.548.8l3.39-7.976-5.982-13.759h3.39l4.187 9.771 4.187-9.771h3.39l-9.172 21.735h-3.39zm-16.151-7.577a5.263 5.263 0 01-1.4-3.789 4.528 4.528 0 011.2-3.19 7.69 7.69 0 015.583-1.994 6.828 6.828 0 013.589.8 3.387 3.387 0 00-3.589-3.39 3.685 3.685 0 00-3.39 2.193l-2.991-1.2a6.332 6.332 0 016.181-3.988 6.764 6.764 0 015.184 1.994 7.354 7.354 0 011.6 5.184v8.375h-3.394v-1.4a6.21 6.21 0 01-1.795 1.4 6.369 6.369 0 01-2.792.6 7.7 7.7 0 01-3.988-1.6zm-106.28-7.178a8.279 8.279 0 018.375-8.375 8.411 8.411 0 018.375 8.375 8.375 8.375 0 11-16.75 0zm17.946 0a8.279 8.279 0 018.375-8.375 8.411 8.411 0 018.375 8.375 8.279 8.279 0 01-8.375 8.375 8.411 8.411 0 01-8.375-8.375zm-40.478 4.387c-4.985-4.985-4.786-13.16.2-18.345a12.659 12.659 0 019.172-3.789 12.372 12.372 0 018.774 3.589l-2.393 2.592a8.908 8.908 0 00-12.762.2 9.634 9.634 0 000 13.36 9.042 9.042 0 0013.16.2 7.175 7.175 0 001.795-4.387h-8.375v-3.588h11.765a12.26 12.26 0 01.2 2.792 11.486 11.486 0 01-3.19 7.976 12.226 12.226 0 01-8.574 3.39 14.807 14.807 0 01-9.771-3.988zm84.346 1.4a9.1 9.1 0 010-11.964 7.252 7.252 0 0110.768 0 11.819 11.819 0 012.193 3.789l-10.967 4.583a4.254 4.254 0 003.988 2.592 4.516 4.516 0 004.187-2.393l2.991 1.994a5.287 5.287 0 00-1 1.2c-3.39 3.39-9.172 3.39-12.163.2zm20.739 2.39V39.681h7.178c4.187 0 7.577 2.991 7.577 6.58a6.683 6.683 0 01-6.78 6.58h-4.387v8.774h-3.588zm16.75 0V39.681h3.39v22.133zm-45.064-.4V36.692h3.589v24.723h-3.589zm60.814-6.18a5.436 5.436 0 00-3.19-.8c-2.393 0-3.789 1.2-3.789 2.592s1.4 2.193 2.792 2.193a4.167 4.167 0 004.187-3.988zm-102.093-1.6a4.6 4.6 0 10-4.586 4.985c2.792 0 4.586-2.592 4.586-4.985zm17.946 0a4.6 4.6 0 10-4.586 4.985 4.717 4.717 0 004.586-4.985zm17.747 1.4a.733.733 0 01.2-.6v-1.792c0-.2-.2-.6-.2-.8a4.626 4.626 0 00-4.187-3.39c-2.393 0-4.387 2.393-4.387 4.985a4.736 4.736 0 004.586 4.985c1.6.2 3.19-1.2 3.988-3.39zm14.556-1.795l7.378-3.19a3.328 3.328 0 00-2.991-1.795c-2.991.2-4.786 3.39-4.387 4.985zm30.508-6.78c0-1.994-1.6-3.39-3.789-3.39h-3.988v6.979h4.187a3.574 3.574 0 003.591-3.588z" fill="#fff" fill-rule="evenodd"/><path data-name="Path 252" d="M227.915 64.407h-.2v-.2.2h.2z" fill="#fff" fill-rule="evenodd"/><path data-name="Path 253" d="M227.914 64.407zm0-.2z" fill="#fff" fill-rule="evenodd"/><path data-name="Path 254" d="M227.914 64.407v-.2.2z" fill="#fff" fill-rule="evenodd"/><path data-name="Path 255" d="M227.914 64.407zm0-.2z" fill="#fff" fill-rule="evenodd"/><path data-name="Path 256" d="M227.914 64.207v.2-.2z" fill="#fff" fill-rule="evenodd"/><path data-name="Path 257" d="M227.914 64.407v-.2.2z" fill="#fff" fill-rule="evenodd"/><path data-name="Path 258" d="M227.914 64.407zm0 0z" fill="#fff" fill-rule="evenodd"/><path data-name="Path 259" d="M228.113 64.407zm0-.2zm0 .2z" fill="#fff" fill-rule="evenodd"/><path data-name="Path 260" d="M228.113 64.207v.2z" fill="#fff" fill-rule="evenodd"/><path data-name="Path 261" d="M228.113 64.407v-.2.2z" fill="#fff" fill-rule="evenodd"/><path data-name="Path 262" d="M228.113 64.407zm0-.2z" fill="#fff" fill-rule="evenodd"/><path data-name="Path 264" d="M228.313 64.407zm0-.2c0 .2-.2.2 0 0z" fill="#fff" fill-rule="evenodd"/><path data-name="Path 265" d="M228.313 64.407v-.2.2-.2.2-.2z" fill="#fff" fill-rule="evenodd"/><path data-name="Path 266" d="M228.313 64.407zm0-.2z" fill="#fff" fill-rule="evenodd"/><path data-name="Path 268" d="M228.513 64.207v.2-.2z" fill="#fff" fill-rule="evenodd"/><path data-name="Path 269" d="M228.512 64.407v-.2.2z" fill="#fff" fill-rule="evenodd"/><path data-name="Path 270" d="M228.512 64.407zm0-.2z" fill="#fff" fill-rule="evenodd"/><path data-name="Path 271" d="M77.567 20.14a5.547 5.547 0 015.783-5.783 5.3 5.3 0 014.586 2.393l-1.6 1a3.6 3.6 0 00-2.991-1.4 3.72 3.72 0 00-3.789 3.988 3.72 3.72 0 003.789 3.988 3.931 3.931 0 002.592-1v-1.791h-3.19v-1.794h5.384v4.187a5.836 5.836 0 01-4.586 1.994 5.713 5.713 0 01-5.978-5.782z" fill="#fff"/><path data-name="Path 272" d="M90.527 25.722V14.556h7.577v1.795h-5.783v2.792h5.583v1.795h-5.583v3.19h5.783v1.795l-7.577-.2z" fill="#fff"/><path data-name="Path 273" d="M103.688 25.722v-9.371h-3.39v-1.795h8.774v1.795h-3.39v9.372h-1.994z" fill="#fff"/><path data-name="Path 274" d="M115.851 25.722V14.556h1.994v11.166z" fill="#fff"/><path data-name="Path 275" d="M123.229 25.722v-9.371h-3.39v-1.795h8.774v1.795h-3.39v9.372h-1.994z" fill="#fff"/><path data-name="Path 276" d="M134.994 20.14a5.783 5.783 0 1111.565 0 5.549 5.549 0 01-5.783 5.783 5.663 5.663 0 01-5.782-5.783zm9.372 0c0-2.393-1.4-3.988-3.789-3.988a3.834 3.834 0 00-3.789 3.988c0 2.393 1.4 3.988 3.789 3.988a3.716 3.716 0 003.789-3.988z" fill="#fff"/><path data-name="Path 277" d="M156.529 25.722l-5.783-7.976v7.976h-1.994V14.556h1.994l5.783 7.777v-7.777h1.994v11.166z" fill="#fff"/></svg>